<?xml version="1.0" encoding="UTF-8"?> <svg xmlns="http://www.w3.org/2000/svg" id="Layer_1" data-name="Layer 1" viewBox="0 0 328.24 259.11"> <defs> <style>.cls-1{fill:#fff;fill-rule:evenodd;}</style> </defs> <title>decor-white</title> <polygon class="cls-1" points="205.7 259.63 210.6 247.36 200.79 247.36 205.7 259.63 205.7 259.63"></polygon> <polygon class="cls-1" points="249.88 145.61 246.93 138.23 252.83 138.23 249.88 145.61 249.88 145.61"></polygon> <polygon class="cls-1" points="73.15 145.61 70.2 138.23 76.1 138.23 73.15 145.61 73.15 145.61"></polygon> <polygon class="cls-1" points="225.33 208.96 221.29 198.86 229.37 198.86 225.33 208.96 225.33 208.96"></polygon> <polygon class="cls-1" points="78.06 208.96 74.02 198.86 82.1 198.86 78.06 208.96 78.06 208.96"></polygon> <polygon class="cls-1" points="195.88 208.96 191.84 198.86 199.92 198.86 195.88 208.96 195.88 208.96"></polygon> <polygon class="cls-1" points="269.51 94.93 267.43 89.73 271.6 89.73 269.51 94.93 269.51 94.93"></polygon> <polygon class="cls-1" points="33.88 94.93 31.79 89.73 35.96 89.73 33.88 94.93 33.88 94.93"></polygon> <polygon class="cls-1" points="97.69 234.29 93.22 223.11 102.17 223.11 97.69 234.29 97.69 234.29"></polygon> <polygon class="cls-1" points="215.51 234.29 211.04 223.11 219.99 223.11 215.51 234.29 215.51 234.29"></polygon> <polygon class="cls-1" points="186.06 234.29 181.59 223.11 190.53 223.11 186.06 234.29 186.06 234.29"></polygon> <polygon class="cls-1" points="259.7 120.27 257.18 113.98 262.21 113.98 259.7 120.27 259.7 120.27"></polygon> <polygon class="cls-1" points="53.51 120.27 51 113.98 56.03 113.98 53.51 120.27 53.51 120.27"></polygon> <polygon class="cls-1" points="240.06 170.95 236.67 162.48 243.44 162.48 240.06 170.95 240.06 170.95"></polygon> <polygon class="cls-1" points="63.33 170.95 59.94 162.48 66.72 162.48 63.33 170.95 63.33 170.95"></polygon> <polygon class="cls-1" points="181.15 170.95 177.76 162.48 184.54 162.48 181.15 170.95 181.15 170.95"></polygon> <polygon class="cls-1" points="279.33 69.59 277.69 65.48 280.98 65.48 279.33 69.59 279.33 69.59"></polygon> <polygon class="cls-1" points="43.69 69.59 42.05 65.48 45.34 65.48 43.69 69.59 43.69 69.59"></polygon> <polygon class="cls-1" points="294.06 31.58 293.07 29.1 295.05 29.1 294.06 31.58 294.06 31.58"></polygon> <polygon class="cls-1" points="28.97 31.58 27.97 29.1 29.96 29.1 28.97 31.58 28.97 31.58"></polygon> <polygon class="cls-1" points="92.79 246.96 88.09 235.23 97.48 235.23 92.79 246.96 92.79 246.96"></polygon> <polygon class="cls-1" points="210.6 246.96 205.91 235.23 215.3 235.23 210.6 246.96 210.6 246.96"></polygon> <polygon class="cls-1" points="254.79 132.94 252.05 126.11 257.52 126.11 254.79 132.94 254.79 132.94"></polygon> <polygon class="cls-1" points="48.6 132.94 45.87 126.11 51.34 126.11 48.6 132.94 48.6 132.94"></polygon> <polygon class="cls-1" points="230.24 196.29 226.42 186.73 234.06 186.73 230.24 196.29 230.24 196.29"></polygon> <polygon class="cls-1" points="171.33 196.29 167.51 186.73 175.15 186.73 171.33 196.29 171.33 196.29"></polygon> <polygon class="cls-1" points="82.97 196.29 79.15 186.73 86.79 186.73 82.97 196.29 82.97 196.29"></polygon> <polygon class="cls-1" points="235.15 183.62 231.55 174.61 238.75 174.61 235.15 183.62 235.15 183.62"></polygon> <polygon class="cls-1" points="176.24 183.62 172.64 174.61 179.84 174.61 176.24 183.62 176.24 183.62"></polygon> <polygon class="cls-1" points="87.88 183.62 84.27 174.61 91.48 174.61 87.88 183.62 87.88 183.62"></polygon> <polygon class="cls-1" points="274.42 82.26 272.56 77.6 276.29 77.6 274.42 82.26 274.42 82.26"></polygon> <polygon class="cls-1" points="38.78 82.26 36.92 77.6 40.65 77.6 38.78 82.26 38.78 82.26"></polygon> <polygon class="cls-1" points="289.15 44.25 287.94 41.23 290.36 41.23 289.15 44.25 289.15 44.25"></polygon> <polygon class="cls-1" points="24.06 44.25 22.85 41.23 25.27 41.23 24.06 44.25 24.06 44.25"></polygon> <polygon class="cls-1" points="102.6 221.63 98.35 210.98 106.86 210.98 102.6 221.63 102.6 221.63"></polygon> <polygon class="cls-1" points="220.42 221.63 216.17 210.98 224.68 210.98 220.42 221.63 220.42 221.63"></polygon> <polygon class="cls-1" points="190.97 221.63 186.71 210.98 195.23 210.98 190.97 221.63 190.97 221.63"></polygon> <polygon class="cls-1" points="264.61 107.6 262.31 101.85 266.9 101.85 264.61 107.6 264.61 107.6"></polygon> <polygon class="cls-1" points="58.42 107.6 56.12 101.85 60.72 101.85 58.42 107.6 58.42 107.6"></polygon> <polygon class="cls-1" points="244.97 158.28 241.8 150.36 248.14 150.36 244.97 158.28 244.97 158.28"></polygon> <polygon class="cls-1" points="68.24 158.28 65.07 150.36 71.41 150.36 68.24 158.28 68.24 158.28"></polygon> <polygon class="cls-1" points="284.24 56.92 282.81 53.35 285.67 53.35 284.24 56.92 284.24 56.92"></polygon> <polygon class="cls-1" points="19.15 56.92 17.72 53.35 20.58 53.35 19.15 56.92 19.15 56.92"></polygon> <polygon class="cls-1" points="298.97 18.91 298.19 16.98 299.75 16.98 298.97 18.91 298.97 18.91"></polygon> <polygon class="cls-1" points="4.42 18.91 3.65 16.98 5.2 16.98 4.42 18.91 4.42 18.91"></polygon> <polygon class="cls-1" points="303.88 6.25 303.32 4.85 304.44 4.85 303.88 6.25 303.88 6.25"></polygon> <polygon class="cls-1" points="9.33 6.25 8.77 4.85 9.89 4.85 9.33 6.25 9.33 6.25"></polygon> <polygon class="cls-1" points="97.69 259.63 102.6 247.36 92.79 247.36 97.69 259.63 97.69 259.63"></polygon> <polygon class="cls-1" points="215.51 259.63 220.42 247.36 210.6 247.36 215.51 259.63 215.51 259.63"></polygon> <polygon class="cls-1" points="259.7 145.61 256.74 138.23 262.65 138.23 259.7 145.61 259.7 145.61"></polygon> <polygon class="cls-1" points="53.51 145.61 50.56 138.23 56.47 138.23 53.51 145.61 53.51 145.61"></polygon> <polygon class="cls-1" points="235.15 208.96 231.11 198.86 239.19 198.86 235.15 208.96 235.15 208.96"></polygon> <polygon class="cls-1" points="176.24 208.96 172.2 198.86 180.28 198.86 176.24 208.96 176.24 208.96"></polygon> <polygon class="cls-1" points="87.88 208.96 83.84 198.86 91.92 198.86 87.88 208.96 87.88 208.96"></polygon> <polygon class="cls-1" points="279.33 94.93 277.25 89.73 281.41 89.73 279.33 94.93 279.33 94.93"></polygon> <polygon class="cls-1" points="43.69 94.93 41.61 89.73 45.77 89.73 43.69 94.93 43.69 94.93"></polygon> <polygon class="cls-1" points="107.51 234.29 103.04 223.11 111.99 223.11 107.51 234.29 107.51 234.29"></polygon> <polygon class="cls-1" points="225.33 234.29 220.86 223.11 229.81 223.11 225.33 234.29 225.33 234.29"></polygon> <polygon class="cls-1" points="195.88 234.29 191.4 223.11 200.35 223.11 195.88 234.29 195.88 234.29"></polygon> <polygon class="cls-1" points="269.51 120.27 267 113.98 272.03 113.98 269.51 120.27 269.51 120.27"></polygon> <polygon class="cls-1" points="63.33 120.27 60.82 113.98 65.85 113.98 63.33 120.27 63.33 120.27"></polygon> <polygon class="cls-1" points="249.88 170.95 246.49 162.48 253.26 162.48 249.88 170.95 249.88 170.95"></polygon> <polygon class="cls-1" points="73.15 170.95 69.76 162.48 76.53 162.48 73.15 170.95 73.15 170.95"></polygon> <polygon class="cls-1" points="289.15 69.59 287.5 65.48 290.8 65.48 289.15 69.59 289.15 69.59"></polygon> <polygon class="cls-1" points="24.06 69.59 22.41 65.48 25.7 65.48 24.06 69.59 24.06 69.59"></polygon> <polygon class="cls-1" points="303.88 31.58 302.88 29.1 304.87 29.1 303.88 31.58 303.88 31.58"></polygon> <polygon class="cls-1" points="9.33 31.58 8.34 29.1 10.32 29.1 9.33 31.58 9.33 31.58"></polygon> <polygon class="cls-1" points="102.6 246.96 97.91 235.23 107.3 235.23 102.6 246.96 102.6 246.96"></polygon> <polygon class="cls-1" points="220.42 246.96 215.73 235.23 225.11 235.23 220.42 246.96 220.42 246.96"></polygon> <polygon class="cls-1" points="190.97 246.96 186.28 235.23 195.66 235.23 190.97 246.96 190.97 246.96"></polygon> <polygon class="cls-1" points="264.61 132.94 261.87 126.11 267.34 126.11 264.61 132.94 264.61 132.94"></polygon> <polygon class="cls-1" points="58.42 132.94 55.69 126.11 61.16 126.11 58.42 132.94 58.42 132.94"></polygon> <polygon class="cls-1" points="240.06 196.29 236.24 186.73 243.88 186.73 240.06 196.29 240.06 196.29"></polygon> <polygon class="cls-1" points="181.15 196.29 177.33 186.73 184.97 186.73 181.15 196.29 181.15 196.29"></polygon> <polygon class="cls-1" points="92.79 196.29 88.97 186.73 96.61 186.73 92.79 196.29 92.79 196.29"></polygon> <polygon class="cls-1" points="244.97 183.62 241.37 174.61 248.57 174.61 244.97 183.62 244.97 183.62"></polygon> <polygon class="cls-1" points="68.24 183.62 64.64 174.61 71.84 174.61 68.24 183.62 68.24 183.62"></polygon> <polygon class="cls-1" points="186.06 183.62 182.46 174.61 189.66 174.61 186.06 183.62 186.06 183.62"></polygon> <polygon class="cls-1" points="284.24 82.26 282.38 77.6 286.11 77.6 284.24 82.26 284.24 82.26"></polygon> <polygon class="cls-1" points="48.6 82.26 46.74 77.6 50.47 77.6 48.6 82.26 48.6 82.26"></polygon> <polygon class="cls-1" points="298.97 44.25 297.76 41.23 300.18 41.23 298.97 44.25 298.97 44.25"></polygon> <polygon class="cls-1" points="33.88 44.25 32.67 41.23 35.09 41.23 33.88 44.25 33.88 44.25"></polygon> <polygon class="cls-1" points="230.24 221.63 225.98 210.98 234.5 210.98 230.24 221.63 230.24 221.63"></polygon> <polygon class="cls-1" points="82.97 221.63 78.71 210.98 87.22 210.98 82.97 221.63 82.97 221.63"></polygon> <polygon class="cls-1" points="200.79 221.63 196.53 210.98 205.04 210.98 200.79 221.63 200.79 221.63"></polygon> <polygon class="cls-1" points="274.42 107.6 272.13 101.85 276.72 101.85 274.42 107.6 274.42 107.6"></polygon> <polygon class="cls-1" points="38.78 107.6 36.49 101.85 41.08 101.85 38.78 107.6 38.78 107.6"></polygon> <polygon class="cls-1" points="254.79 158.28 251.62 150.36 257.95 150.36 254.79 158.28 254.79 158.28"></polygon> <polygon class="cls-1" points="78.06 158.28 74.89 150.36 81.23 150.36 78.06 158.28 78.06 158.28"></polygon> <polygon class="cls-1" points="294.06 56.92 292.63 53.35 295.49 53.35 294.06 56.92 294.06 56.92"></polygon> <polygon class="cls-1" points="28.97 56.92 27.54 53.35 30.4 53.35 28.97 56.92 28.97 56.92"></polygon> <polygon class="cls-1" points="308.79 18.91 308.01 16.98 309.56 16.98 308.79 18.91 308.79 18.91"></polygon> <polygon class="cls-1" points="14.24 18.91 13.46 16.98 15.02 16.98 14.24 18.91 14.24 18.91"></polygon> <polygon class="cls-1" points="313.7 6.25 313.14 4.85 314.25 4.85 313.7 6.25 313.7 6.25"></polygon> <polygon class="cls-1" points="19.15 6.25 18.59 4.85 19.71 4.85 19.15 6.25 19.15 6.25"></polygon> <polygon class="cls-1" points="220.42 247.36 225.33 259.63 215.51 259.63 220.42 247.36 220.42 247.36"></polygon> <polygon class="cls-1" points="200.79 247.36 205.7 259.63 195.88 259.63 200.79 247.36 200.79 247.36"></polygon> <path class="cls-1" d="M261.65,147.85h5.91l-3-7.38q-1.47,3.69-3,7.38Z"></path> <path class="cls-1" d="M55.47,147.85h5.9l-2.95-7.38q-1.47,3.69-3,7.38Z"></path> <path class="cls-1" d="M173.29,147.85h5.9l-2.95-7.38-3,7.38Z"></path> <path class="cls-1" d="M236,210h8.08l-4-10.09q-2,5-4,10.09Z"></path> <path class="cls-1" d="M177.11,210h8.08l-4-10.09q-2,5-4,10.09Z"></path> <path class="cls-1" d="M88.75,210h8.08l-4-10.09q-2,5-4,10.09Z"></path> <path class="cls-1" d="M282.16,98.17h4.16L284.24,93l-2.08,5.2Z"></path> <path class="cls-1" d="M46.52,98.17h4.16L48.6,93c-.69,1.73-1.38,3.47-2.08,5.2Z"></path> <path class="cls-1" d="M225.77,234.79h8.95l-4.48-11.18-4.47,11.18Z"></path> <path class="cls-1" d="M196.31,234.79h8.95l-4.47-11.18q-2.23,5.59-4.48,11.18Z"></path> <path class="cls-1" d="M271.91,123h5l-2.52-6.29L271.91,123Z"></path> <path class="cls-1" d="M65.72,123h5l-2.52-6.29L65.72,123Z"></path> <path class="cls-1" d="M251.4,172.69h6.77l-3.38-8.46-3.39,8.46Z"></path> <path class="cls-1" d="M74.67,172.69h6.77l-3.38-8.46-3.39,8.46Z"></path> <path class="cls-1" d="M163,172.69h6.77l-3.39-8.46L163,172.69Z"></path> <path class="cls-1" d="M292.41,73.33h3.3l-1.65-4.11-1.65,4.11Z"></path> <path class="cls-1" d="M27.32,73.33h3.29L29,69.22l-1.65,4.11Z"></path> <path class="cls-1" d="M307.79,36.07h2l-1-2.48c-.33.82-.67,1.65-1,2.48Z"></path> <path class="cls-1" d="M13.25,36.07h2l-1-2.48-1,2.48Z"></path> <path class="cls-1" d="M220.64,247.21H230l-4.69-11.73-4.69,11.73Z"></path> <path class="cls-1" d="M191.19,247.21h9.38l-4.69-11.73q-2.35,5.86-4.69,11.73Z"></path> <path class="cls-1" d="M266.78,135.43h5.47l-2.74-6.83-2.73,6.83Z"></path> <path class="cls-1" d="M60.6,135.43h5.47l-2.74-6.83-2.73,6.83Z"></path> <path class="cls-1" d="M241.15,197.53h7.64L245,188q-1.92,4.77-3.82,9.55Z"></path> <path class="cls-1" d="M182.24,197.53h7.64L186.06,188q-1.92,4.77-3.82,9.55Z"></path> <path class="cls-1" d="M93.87,197.53h7.65L97.7,188q-1.92,4.77-3.83,9.55Z"></path> <path class="cls-1" d="M246.27,185.11h7.21l-3.6-9q-1.8,4.52-3.61,9Z"></path> <path class="cls-1" d="M69.54,185.11h7.21l-3.6-9q-1.8,4.52-3.61,9Z"></path> <path class="cls-1" d="M187.36,185.11h7.21l-3.6-9q-1.8,4.52-3.61,9Z"></path> <path class="cls-1" d="M287.29,85.75H291l-1.86-4.66-1.86,4.66Z"></path> <path class="cls-1" d="M51.65,85.75h3.73l-1.87-4.66-1.86,4.66Z"></path> <path class="cls-1" d="M302.67,48.49h2.42l-1.21-3c-.41,1-.81,2-1.21,3Z"></path> <path class="cls-1" d="M37.57,48.49H40l-1.21-3-1.22,3Z"></path> <path class="cls-1" d="M230.89,222.37h8.52l-4.26-10.64-4.26,10.64Z"></path> <path class="cls-1" d="M83.62,222.37h8.51l-4.25-10.64-4.26,10.64Z"></path> <path class="cls-1" d="M201.44,222.37H210l-4.25-10.64-4.26,10.64Z"></path> <path class="cls-1" d="M277,110.59h4.6l-2.3-5.75q-1.14,2.88-2.3,5.75Z"></path> <path class="cls-1" d="M41.4,110.59H46l-2.3-5.75c-.76,1.92-1.53,3.84-2.29,5.75Z"></path> <path class="cls-1" d="M256.53,160.27h6.33l-3.16-7.92q-1.59,4-3.17,7.92Z"></path> <path class="cls-1" d="M79.8,160.27h6.34L83,152.35q-1.59,4-3.17,7.92Z"></path> <path class="cls-1" d="M168.16,160.27h6.34l-3.17-7.92q-1.58,4-3.17,7.92Z"></path> <path class="cls-1" d="M297.54,60.91h2.86L299,57.34l-1.43,3.57Z"></path> <path class="cls-1" d="M32.45,60.91h2.86l-1.43-3.57c-.48,1.19-1,2.38-1.43,3.57Z"></path> <path class="cls-1" d="M312.92,23.65h1.55l-.77-1.94-.78,1.94Z"></path> <path class="cls-1" d="M18.37,23.65h1.55l-.77-1.94-.78,1.94Z"></path> <path class="cls-1" d="M318.05,11.23h1.11l-.55-1.4-.56,1.4Z"></path> <path class="cls-1" d="M23.5,11.23h1.12l-.56-1.4-.56,1.4Z"></path> <path class="cls-1" d="M242,147.85h5.9L245,140.47,242,147.85Z"></path> <path class="cls-1" d="M65.29,147.85h5.9l-3-7.38-2.95,7.38Z"></path> <path class="cls-1" d="M186.93,210H195l-4-10.09q-2,5-4,10.09Z"></path> <path class="cls-1" d="M98.57,210h8.07l-4-10.09q-2,5-4,10.09Z"></path> <path class="cls-1" d="M216.38,210h8.08l-4-10.09q-2,5-4,10.09Z"></path> <path class="cls-1" d="M56.34,98.17H60.5L58.42,93l-2.08,5.2Z"></path> <path class="cls-1" d="M262.53,98.17h4.16L264.61,93c-.7,1.73-1.39,3.47-2.08,5.2Z"></path> <path class="cls-1" d="M88.31,234.79h9l-4.47-11.18q-2.24,5.59-4.48,11.18Z"></path> <path class="cls-1" d="M206.13,234.79h9l-4.47-11.18q-2.25,5.59-4.48,11.18Z"></path> <path class="cls-1" d="M46.09,123h5l-2.52-6.29L46.09,123Z"></path> <path class="cls-1" d="M252.27,123h5l-2.51-6.29L252.27,123Z"></path> <path class="cls-1" d="M84.49,172.69h6.77l-3.38-8.46-3.39,8.46Z"></path> <path class="cls-1" d="M231.77,172.69h6.77l-3.39-8.46q-1.69,4.23-3.38,8.46Z"></path> <path class="cls-1" d="M172.86,172.69h6.77l-3.39-8.46q-1.69,4.23-3.38,8.46Z"></path> <path class="cls-1" d="M272.78,73.33h3.29l-1.65-4.11c-.54,1.37-1.09,2.74-1.64,4.11Z"></path> <path class="cls-1" d="M37.14,73.33h3.29l-1.64-4.11-1.65,4.11Z"></path> <path class="cls-1" d="M23.06,36.07h2l-1-2.48-1,2.48Z"></path> <path class="cls-1" d="M288.16,36.07h2l-1-2.48-1,2.48Z"></path> <path class="cls-1" d="M201,247.21h9.38l-4.69-11.73q-2.35,5.86-4.69,11.73Z"></path> <path class="cls-1" d="M247.14,135.43h5.47l-2.73-6.83c-.91,2.28-1.82,4.55-2.74,6.83Z"></path> <path class="cls-1" d="M70.42,135.43h5.46l-2.73-6.83-2.73,6.83Z"></path> <path class="cls-1" d="M74.24,197.53h7.64L78.06,188q-1.92,4.77-3.82,9.55Z"></path> <path class="cls-1" d="M192.06,197.53h7.64L195.88,188q-1.92,4.77-3.82,9.55Z"></path> <path class="cls-1" d="M221.51,197.53h7.64L225.33,188q-1.91,4.77-3.82,9.55Z"></path> <path class="cls-1" d="M79.36,185.11h7.21l-3.6-9q-1.8,4.52-3.61,9Z"></path> <path class="cls-1" d="M226.64,185.11h7.21l-3.61-9-3.6,9Z"></path> <path class="cls-1" d="M167.73,185.11h7.21l-3.61-9-3.6,9Z"></path> <path class="cls-1" d="M267.65,85.75h3.73l-1.86-4.66-1.87,4.66Z"></path> <path class="cls-1" d="M32,85.75h3.73l-1.86-4.66c-.62,1.56-1.25,3.11-1.87,4.66Z"></path> <path class="cls-1" d="M17.94,48.49h2.42l-1.21-3c-.41,1-.81,2-1.21,3Z"></path> <path class="cls-1" d="M283,48.49h2.42l-1.21-3c-.4,1-.8,2-1.21,3Z"></path> <path class="cls-1" d="M181.8,222.37h8.52l-4.26-10.64-4.26,10.64Z"></path> <path class="cls-1" d="M93.44,222.37H102L97.7,211.73l-4.26,10.64Z"></path> <path class="cls-1" d="M211.26,222.37h8.51l-4.25-10.64-4.26,10.64Z"></path> <path class="cls-1" d="M51.21,110.59h4.6l-2.3-5.75q-1.14,2.88-2.3,5.75Z"></path> <path class="cls-1" d="M257.4,110.59H262l-2.3-5.75-2.3,5.75Z"></path> <path class="cls-1" d="M236.89,160.27h6.34l-3.17-7.92-3.17,7.92Z"></path> <path class="cls-1" d="M60.16,160.27H66.5l-3.17-7.92q-1.57,4-3.17,7.92Z"></path> <path class="cls-1" d="M178,160.27h6.34l-3.17-7.92L178,160.27Z"></path> <path class="cls-1" d="M277.9,60.91h2.86l-1.43-3.57c-.47,1.19-.95,2.38-1.43,3.57Z"></path> <path class="cls-1" d="M42.27,60.91h2.85L43.7,57.34c-.48,1.19-1,2.38-1.43,3.57Z"></path> <path class="cls-1" d="M28.19,23.65h1.55L29,21.71l-.78,1.94Z"></path> <path class="cls-1" d="M293.29,23.65h1.55l-.78-1.94c-.26.65-.52,1.29-.77,1.94Z"></path> <path class="cls-1" d="M298.41,11.23h1.12L299,9.83c-.19.47-.37.94-.56,1.4Z"></path> <path class="cls-1" d="M3.86,11.23H5l-.56-1.4c-.18.47-.37.94-.56,1.4Z"></path> <polygon class="cls-1" points="117.33 259.63 122.24 247.36 112.42 247.36 117.33 259.63 117.33 259.63"></polygon> <polygon class="cls-1" points="161.51 145.61 158.56 138.23 164.47 138.23 161.51 145.61 161.51 145.61"></polygon> <polygon class="cls-1" points="136.97 208.96 132.93 198.86 141.01 198.86 136.97 208.96 136.97 208.96"></polygon> <polygon class="cls-1" points="181.15 94.93 179.07 89.73 183.23 89.73 181.15 94.93 181.15 94.93"></polygon> <polygon class="cls-1" points="127.15 234.29 122.68 223.11 131.63 223.11 127.15 234.29 127.15 234.29"></polygon> <polygon class="cls-1" points="171.33 120.27 168.82 113.98 173.85 113.98 171.33 120.27 171.33 120.27"></polygon> <polygon class="cls-1" points="151.7 170.95 148.31 162.48 155.08 162.48 151.7 170.95 151.7 170.95"></polygon> <polygon class="cls-1" points="190.97 69.59 189.32 65.48 192.62 65.48 190.97 69.59 190.97 69.59"></polygon> <polygon class="cls-1" points="205.7 31.58 204.7 29.1 206.69 29.1 205.7 31.58 205.7 31.58"></polygon> <polygon class="cls-1" points="122.24 246.96 117.55 235.23 126.93 235.23 122.24 246.96 122.24 246.96"></polygon> <polygon class="cls-1" points="166.42 132.94 163.69 126.11 169.16 126.11 166.42 132.94 166.42 132.94"></polygon> <polygon class="cls-1" points="141.88 196.29 138.06 186.73 145.7 186.73 141.88 196.29 141.88 196.29"></polygon> <polygon class="cls-1" points="146.79 183.62 143.18 174.61 150.39 174.61 146.79 183.62 146.79 183.62"></polygon> <polygon class="cls-1" points="186.06 82.26 184.2 77.6 187.92 77.6 186.06 82.26 186.06 82.26"></polygon> <polygon class="cls-1" points="200.79 44.25 199.58 41.23 202 41.23 200.79 44.25 200.79 44.25"></polygon> <polygon class="cls-1" points="132.06 221.63 127.8 210.98 136.32 210.98 132.06 221.63 132.06 221.63"></polygon> <polygon class="cls-1" points="176.24 107.6 173.94 101.85 178.54 101.85 176.24 107.6 176.24 107.6"></polygon> <polygon class="cls-1" points="156.6 158.28 153.44 150.36 159.77 150.36 156.6 158.28 156.6 158.28"></polygon> <polygon class="cls-1" points="195.88 56.92 194.45 53.35 197.31 53.35 195.88 56.92 195.88 56.92"></polygon> <polygon class="cls-1" points="210.61 18.91 209.83 16.98 211.38 16.98 210.61 18.91 210.61 18.91"></polygon> <polygon class="cls-1" points="215.51 6.25 214.96 4.85 216.07 4.85 215.51 6.25 215.51 6.25"></polygon> <polygon class="cls-1" points="127.15 259.63 132.06 247.36 122.24 247.36 127.15 259.63 127.15 259.63"></polygon> <polygon class="cls-1" points="171.33 145.61 168.38 138.23 174.28 138.23 171.33 145.61 171.33 145.61"></polygon> <polygon class="cls-1" points="146.79 208.96 142.75 198.86 150.83 198.86 146.79 208.96 146.79 208.96"></polygon> <polygon class="cls-1" points="190.97 94.93 188.89 89.73 193.05 89.73 190.97 94.93 190.97 94.93"></polygon> <polygon class="cls-1" points="136.97 234.29 132.5 223.11 141.44 223.11 136.97 234.29 136.97 234.29"></polygon> <polygon class="cls-1" points="181.15 120.27 178.63 113.98 183.67 113.98 181.15 120.27 181.15 120.27"></polygon> <polygon class="cls-1" points="161.51 170.95 158.13 162.48 164.9 162.48 161.51 170.95 161.51 170.95"></polygon> <polygon class="cls-1" points="200.79 69.59 199.14 65.48 202.43 65.48 200.79 69.59 200.79 69.59"></polygon> <polygon class="cls-1" points="215.51 31.58 214.52 29.1 216.51 29.1 215.51 31.58 215.51 31.58"></polygon> <polygon class="cls-1" points="132.06 246.96 127.37 235.23 136.75 235.23 132.06 246.96 132.06 246.96"></polygon> <polygon class="cls-1" points="176.24 132.94 173.51 126.11 178.98 126.11 176.24 132.94 176.24 132.94"></polygon> <polygon class="cls-1" points="151.7 196.29 147.88 186.73 155.52 186.73 151.7 196.29 151.7 196.29"></polygon> <polygon class="cls-1" points="156.6 183.62 153 174.61 160.21 174.61 156.6 183.62 156.6 183.62"></polygon> <polygon class="cls-1" points="195.88 82.26 194.01 77.6 197.74 77.6 195.88 82.26 195.88 82.26"></polygon> <polygon class="cls-1" points="210.61 44.25 209.4 41.23 211.82 41.23 210.61 44.25 210.61 44.25"></polygon> <polygon class="cls-1" points="141.88 221.63 137.62 210.98 146.13 210.98 141.88 221.63 141.88 221.63"></polygon> <polygon class="cls-1" points="186.06 107.6 183.76 101.85 188.36 101.85 186.06 107.6 186.06 107.6"></polygon> <polygon class="cls-1" points="166.42 158.28 163.25 150.36 169.59 150.36 166.42 158.28 166.42 158.28"></polygon> <polygon class="cls-1" points="205.7 56.92 204.27 53.35 207.13 53.35 205.7 56.92 205.7 56.92"></polygon> <polygon class="cls-1" points="220.42 18.91 219.65 16.98 221.2 16.98 220.42 18.91 220.42 18.91"></polygon> <polygon class="cls-1" points="225.33 6.25 224.77 4.85 225.89 4.85 225.33 6.25 225.33 6.25"></polygon> <polygon class="cls-1" points="102.6 247.36 107.51 259.63 97.69 259.63 102.6 247.36 102.6 247.36"></polygon> <polygon class="cls-1" points="112.42 247.36 117.33 259.63 107.51 259.63 112.42 247.36 112.42 247.36"></polygon> <path class="cls-1" d="M143.83,147.85h5.91l-3-7.38-3,7.38Z"></path> <path class="cls-1" d="M118.2,210h8.08l-4-10.09q-2,5-4,10.09Z"></path> <path class="cls-1" d="M164.34,98.17h4.16L166.42,93l-2.08,5.2Z"></path> <path class="cls-1" d="M108,234.79h9l-4.48-11.18L108,234.79Z"></path> <path class="cls-1" d="M154.09,123h5l-2.52-6.29c-.83,2.1-1.67,4.19-2.51,6.29Z"></path> <path class="cls-1" d="M133.58,172.69h6.77L137,164.23l-3.39,8.46Z"></path> <path class="cls-1" d="M174.59,73.33h3.3l-1.65-4.11-1.65,4.11Z"></path> <path class="cls-1" d="M190,36.07h2l-1-2.48c-.33.82-.66,1.65-1,2.48Z"></path> <path class="cls-1" d="M102.82,247.21h9.38l-4.69-11.73-4.69,11.73Z"></path> <path class="cls-1" d="M149,135.43h5.47l-2.74-6.83L149,135.43Z"></path> <path class="cls-1" d="M123.33,197.53H131L127.15,188l-3.82,9.55Z"></path> <path class="cls-1" d="M128.45,185.11h7.21l-3.6-9q-1.8,4.52-3.61,9Z"></path> <path class="cls-1" d="M169.47,85.75h3.73l-1.87-4.66-1.86,4.66Z"></path> <path class="cls-1" d="M184.85,48.49h2.42l-1.21-3c-.41,1-.81,2-1.21,3Z"></path> <path class="cls-1" d="M113.07,222.37h8.52l-4.26-10.64-4.26,10.64Z"></path> <path class="cls-1" d="M159.21,110.59h4.6l-2.3-5.75q-1.14,2.88-2.3,5.75Z"></path> <path class="cls-1" d="M138.71,160.27h6.34l-3.17-7.92q-1.59,4-3.17,7.92Z"></path> <path class="cls-1" d="M179.72,60.91h2.86l-1.43-3.57-1.43,3.57Z"></path> <path class="cls-1" d="M195.1,23.65h1.55l-.77-1.94-.78,1.94Z"></path> <path class="cls-1" d="M200.23,11.23h1.11l-.55-1.4-.56,1.4Z"></path> <path class="cls-1" d="M153.65,147.85h5.91l-3-7.38q-1.47,3.69-2.95,7.38Z"></path> <path class="cls-1" d="M128,210h8.08l-4-10.09q-2,5-4,10.09Z"></path> <path class="cls-1" d="M174.16,98.17h4.16L176.24,93l-2.08,5.2Z"></path> <path class="cls-1" d="M117.77,234.79h8.94l-4.47-11.18-4.47,11.18Z"></path> <path class="cls-1" d="M163.91,123h5l-2.52-6.29c-.84,2.1-1.68,4.19-2.51,6.29Z"></path> <path class="cls-1" d="M143.4,172.69h6.77l-3.38-8.46-3.39,8.46Z"></path> <path class="cls-1" d="M184.41,73.33h3.3l-1.65-4.11-1.65,4.11Z"></path> <path class="cls-1" d="M199.79,36.07h2l-1-2.48c-.33.82-.67,1.65-1,2.48Z"></path> <path class="cls-1" d="M112.64,247.21H122l-4.69-11.73-4.69,11.73Z"></path> <path class="cls-1" d="M158.78,135.43h5.47l-2.74-6.83-2.73,6.83Z"></path> <path class="cls-1" d="M133.15,197.53h7.64L137,188q-1.92,4.77-3.82,9.55Z"></path> <path class="cls-1" d="M138.27,185.11h7.21l-3.6-9q-1.8,4.52-3.61,9Z"></path> <path class="cls-1" d="M179.29,85.75H183l-1.86-4.66-1.86,4.66Z"></path> <path class="cls-1" d="M194.67,48.49h2.42l-1.21-3c-.41,1-.81,2-1.21,3Z"></path> <path class="cls-1" d="M122.89,222.37h8.52l-4.26-10.64-4.26,10.64Z"></path> <path class="cls-1" d="M169,110.59h4.6l-2.3-5.75q-1.14,2.88-2.3,5.75Z"></path> <path class="cls-1" d="M148.53,160.27h6.33l-3.17-7.92-3.16,7.92Z"></path> <path class="cls-1" d="M189.54,60.91h2.86L191,57.34l-1.43,3.57Z"></path> <path class="cls-1" d="M204.92,23.65h1.55l-.77-1.94-.78,1.94Z"></path> <path class="cls-1" d="M210.05,11.23h1.11l-.56-1.4c-.18.47-.37.94-.55,1.4Z"></path> </svg> 