<?xml version="1.0" encoding="UTF-8"?> <svg xmlns="http://www.w3.org/2000/svg" id="Layer_1" data-name="Layer 1" viewBox="0 0 3613.78 1542.95"> <defs> <style>.cls-1{fill:#fff;fill-rule:evenodd;}</style> </defs> <title>pattern-white</title> <path class="cls-1" d="M2858.37,1543l-27.75-69.38h55.5L2858.37,1543Zm-832.53,0-27.76-69.38h55.51L2025.84,1543Zm-333,0-27.75-69.38h55.5L1692.82,1543Zm166.51,0-27.75-69.38h55.5L1859.33,1543Zm-499.52,0-27.75-69.38h55.5L1359.81,1543Zm-174-18.66-20.29-50.72h55.5L1193.3,1543h-55.5l27.75-69.38,20.29,50.72ZM27.75,1543,0,1473.57H55.5L27.75,1543Zm1498.57,0-27.76-69.38h55.51L1526.32,1543Zm1165.54,0-27.75-69.38h55.5L2691.86,1543Zm-2164.59,0-27.75-69.38H555L527.27,1543Zm499.52,0L999,1473.57h55.5L1026.79,1543Zm1332.06,0-27.75-69.38h55.5L2358.85,1543Zm-2164.59,0-27.75-69.38H222L194.26,1543Zm2331.1,0-27.76-69.38h55.51L2525.36,1543Zm-1665.07,0-27.75-69.38H888L860.29,1543Zm-166.51,0L666,1473.57h55.5L693.78,1543Zm1498.56,0-27.75-69.38h55.5L2192.34,1543Zm-1831.58,0L333,1473.57h55.5L360.76,1543Zm1831.58,0h-55.5l27.75-69.38,27.75,69.38Zm610.53,0h-55.5l-27.76-69.38h55.51l27.75,69.38Zm55.5,0h-55.5l27.75-69.38,27.75,69.38Zm-1165.55,0h-55.5l27.75-69.38,27.75,69.38Zm-55.5,0h-55.5l-27.75-69.38h55.5l27.75,69.38Zm-277.51,0H1304.3l27.76-69.38,27.75,69.38Zm777,0h-55.5l-27.75-69.38h55.5l27.75,69.38Zm-1443.06,0h-55.5L666,1473.57,693.78,1543Zm-55.5,0H582.77L555,1473.57h55.51L638.28,1543Zm499.52,0h-55.51l-27.75-69.38h55.51L1137.8,1543Zm1387.56,0h-55.51l27.75-69.38,27.76,69.38Zm-55.51,0h-55.5l-27.75-69.38h55.5l27.75,69.38Zm-2164.59,0h-55.5L222,1473.57h55.5L305.26,1543Zm55.5,0h-55.5L333,1473.57,360.76,1543Zm666,0h-55.5L999,1473.57l27.75,69.38Zm277.51,0h-55.5l-27.75-69.38h55.5L1304.3,1543Zm499.53,0h-55.51l-27.75-69.38h55.5l27.76,69.38Zm55.5,0h-55.5l27.75-69.38,27.75,69.38Zm1110,0h-55.5l-27.75-69.38h55.5l27.75,69.38Zm-333,0h-55.5l-27.75-69.38h55.5l27.75,69.38Zm55.5,0h-55.5l27.75-69.38,27.75,69.38Zm-1720.57,0h-55.5L888,1473.57h55.5L971.29,1543Zm-111,0H804.78l27.76-69.38L860.29,1543Zm2164.59,0h-55.51l27.75-69.38,27.76,69.38Zm-1054.55,0h-55.5l-27.75-69.38h55.5l27.75,69.38Zm55.51,0h-55.51l27.75-69.38,27.76,69.38Zm-1221.06,0h-55.5l-27.75-69.38H777L804.78,1543Zm-277.51,0h-55.5l27.75-69.38L527.27,1543Zm-388.51,0H83.25L55.5,1473.57H111L138.76,1543Zm1332.05,0h-55.5l-27.75-69.38h55.5l27.75,69.38Zm55.51,0h-55.51l27.75-69.38,27.76,69.38Zm-1332.06,0h-55.5l27.75-69.38L194.26,1543Zm2109.09,0h-55.5l-27.76-69.38h55.51l27.75,69.38Zm55.5,0h-55.5l27.75-69.38,27.75,69.38Zm-1887.08,0h-55.5l-27.76-69.38H444L471.77,1543Zm2024.75-70.11h-53.33q13.33-33.33,26.66-66.67l26.67,66.67Zm-2331.1,0H112.09l26.67-66.67,26.66,66.67Zm2664.11,0H2776.2l26.67-66.67,26.66,66.67Zm-999,0h-53.33l26.67-66.67,26.66,66.67Zm832.54,0h-53.34l26.67-66.67,26.67,66.67Zm-1831.58,0H778.12q13.33-33.33,26.66-66.67l26.67,66.67Zm1498.56,0h-53.33l26.67-66.67,26.66,66.67Zm-999,0h-53.33q13.33-33.33,26.66-66.67l26.67,66.67Zm-333,0H944.62l26.67-66.67L998,1472.84Zm1998.08,0h-53.33q13.34-33.33,26.66-66.67l26.67,66.67Zm-1498.56,0h-53.34q13.35-33.33,26.67-66.67l26.67,66.67Zm-1165.55,0H278.6q13.32-33.33,26.66-66.67l26.67,66.67Zm333,0H611.61l26.67-66.67L665,1472.84Zm1332.05,0h-53.34q13.35-33.33,26.67-66.67l26.67,66.67Zm-333,0h-53.34l26.67-66.67,26.67,66.67Zm-1165.55,0H445.1l26.67-66.67,26.67,66.67Zm1665.07,0h-53.34l26.67-66.67,26.67,66.67Zm-999,0h-53.34l26.67-66.67,26.67,66.67Zm1887.07,0h-53.33l26.67-66.67,26.66,66.67Zm-2164.59,0H833.62l26.67-66.67L887,1472.84Zm499.52,0h-53.33l26.67-66.67,26.66,66.67Zm1498.57,0H2831.7l26.67-66.67,26.67,66.67Zm-1165.55,0h-53.33q13.32-33.33,26.66-66.67l26.67,66.67Zm166.51,0h-53.34l26.67-66.67,26.67,66.67Zm-1332.06,0H500.61q13.32-33.33,26.66-66.67l26.67,66.67Zm-166.51,0H334.1q13.33-33.33,26.66-66.67l26.67,66.67Zm1831.58,0h-53.33q13.34-33.33,26.66-66.67l26.67,66.67Zm-1498.57,0H667.11l26.67-66.67,26.66,66.67Zm1831.58,0h-53.33l26.67-66.67,26.66,66.67Zm-999,0h-53.33q13.33-33.33,26.67-66.67l26.66,66.67Zm-333,0h-53.34l26.67-66.67,26.67,66.67Zm-166.51,0h-53.33q13.32-33.33,26.66-66.67l26.67,66.67Zm-832.54,0H167.59l26.67-66.67,26.66,66.67Zm2497.61,0H2665.2q13.34-33.33,26.66-66.67l26.67,66.67Zm-333,0h-53.34l26.67-66.67,26.67,66.67Zm-333,0h-53.33l26.67-66.67,26.66,66.67Zm-942.45-1.24-26.67-66.67h53.33l-26.66,66.67Zm999,0-26.67-66.67h53.33l-26.66,66.67Zm-55.5,0-26.67-66.67h53.33l-26.66,66.67Zm-1332.06,0-26.67-66.67H748.2l-26.67,66.67Zm55.5,0-26.66-66.67H803.7L777,1471.6Zm1831.58,0-26.67-66.67h53.34l-26.67,66.67Zm-55.5,0-26.67-66.67h53.34l-26.67,66.67Zm-2275.6,0-26.67-66.67h53.34l-26.67,66.67Zm777,0-26.66-66.67h53.33l-26.67,66.67Zm-832.53,0-26.67-66.67h53.34L222,1471.6Zm-111,0-26.67-66.67h53.33L111,1471.6Zm1110,0-26.66-66.67h53.33l-26.67,66.67Zm55.5,0-26.66-66.67h53.33l-26.67,66.67Zm610.53,0-26.67-66.67h53.34l-26.67,66.67Zm55.5,0-26.67-66.67h53.34l-26.67,66.67Zm943.54,0-26.67-66.67h53.34l-26.67,66.67Zm-1110,0-26.66-66.67h53.33l-26.67,66.67Zm-55.5,0-26.66-66.67h53.33l-26.67,66.67Zm-166.5,0-26.67-66.67h53.33l-26.66,66.67Zm-1165.56,0-26.66-66.67h53.33l-26.67,66.67Zm55.51,0-26.67-66.67h53.34L444,1471.6Zm2497.6,0L2915,1404.93h53.33l-26.67,66.67Zm-2886.12,0-26.67-66.67H82.17L55.5,1471.6Zm499.52,0-26.66-66.67h53.33L555,1471.6Zm55.51,0-26.67-66.67h53.33l-26.66,66.67Zm1776.07,0-26.67-66.67h53.34l-26.67,66.67Zm-999,0-26.67-66.67h53.33l-26.66,66.67Zm222,0-26.67-66.67h53.33l-26.66,66.67Zm-166.51,0-26.67-66.67h53.34l-26.67,66.67Zm999,0-26.66-66.67h53.33l-26.67,66.67Zm333,0-26.67-66.67h53.33l-26.66,66.67Zm-499.53,0-26.66-66.67h53.33l-26.67,66.67Zm-55.5,0-26.66-66.67h53.33l-26.67,66.67Zm499.52,0L2693,1404.93h53.33l-26.67,66.67ZM888,1471.6l-26.67-66.67H914.7L888,1471.6Zm55.5,0-26.67-66.67h53.34l-26.67,66.67Zm1414.08-68.24h-53l26.52-66.3,26.52,66.3Zm-166.51,0h-53l26.52-66.3,26.52,66.3Zm-666,0h-53l26.52-66.3,26.53,66.3Zm166.5,0h-53l26.52-66.3,26.52,66.3Zm-499.52,0h-53l26.52-66.3,26.52,66.3Zm166.51,0h-53l26.52-66.3,26.52,66.3Zm-499.52,0H806q13.28-33.15,26.53-66.3l26.52,66.3Zm-166.51,0h-53l26.52-66.3,26.52,66.3Zm1165.54,0h-53l26.52-66.3,26.51,66.3Zm1165.56,0H2970.6l26.52-66.3,26.53,66.3Zm-2497.61,0H473l26.52-66.3,26.52,66.3Zm-333,0H140l26.52-66.3,26.52,66.3Zm2331.1,0h-53.05l26.52-66.3,26.53,66.3Zm166.5,0h-53l26.52-66.3,26.52,66.3Zm-2331.09,0H306.49l26.52-66.3,26.53,66.3Zm2497.6,0h-53l26.52-66.3,26.52,66.3Zm-832.53,0h-53l26.52-66.3,26.53,66.3Zm-999,0h-53l26.52-66.3,26.53,66.3Zm1054.54,0h-53l26.52-66.3,26.52,66.3Zm333,0h-53l26.52-66.3,26.52,66.3Zm-1665.07,0H695l26.52-66.3,26.52,66.3Zm1998.09,0h-53l26.52-66.3,26.53,66.3Zm-832.54,0h-53q13.25-33.15,26.52-66.3l26.52,66.3Zm-999,0h-53l26.52-66.3,26.52,66.3Zm-499.52,0H362l26.52-66.3,26.53,66.3Zm2664.11,0h-53l26.52-66.3,26.52,66.3Zm-1665.07,0h-53l26.52-66.3,26.52,66.3Zm-1165.55,0h-53l26.52-66.3,26.52,66.3Zm1332.06,0h-53l26.52-66.3,26.52,66.3Zm-499.53,0h-53l26.52-66.3,26.52,66.3Zm1165.56,0h-53l26.52-66.3,26.53,66.3Zm-999,0h-53l26.52-66.3,26.52,66.3Zm1665.07,0h-53l26.52-66.3,26.52,66.3Zm-1165.55,0h-53l26.52-66.3,26.52,66.3Zm832.54,0h-53l26.52-66.3,26.52,66.3Zm-1998.09,0h-53l26.52-66.3,26.52,66.3ZM749.28,1402l-26.52-66.3h53L749.28,1402Zm-333,0-26.52-66.3h53L416.27,1402Zm1831.58,0-26.53-66.3h53l-26.52,66.3Zm-166.51,0-26.52-66.3h53l-26.52,66.3Zm832.53,0-26.52-66.3h53.05l-26.53,66.3Zm-2331.1,0-26.52-66.3h53L582.77,1402Zm999.05,0-26.53-66.3h53l-26.52,66.3Zm333,0-26.52-66.3h53l-26.52,66.3Zm-499.52,0-26.52-66.3h53l-26.52,66.3Zm-166.51,0-26.52-66.3h53L1248.8,1402ZM83.25,1402l-26.52-66.3h53.05L83.25,1402Zm2497.61,0-26.52-66.3h53l-26.52,66.3Zm-832.54,0-26.52-66.3h53l-26.52,66.3Zm-666,0-26.52-66.3h53l-26.53,66.3Zm-166.5,0-26.52-66.3h53L915.79,1402Zm-666,0-26.52-66.3h53L249.76,1402Zm2164.59,0-26.52-66.3h53l-26.52,66.3Zm333,0-26.52-66.3h53l-26.52,66.3Zm-2109.09,0-26.52-66.3h53L638.28,1402Zm1831.57,0-26.52-66.3h53l-26.52,66.3Zm-166.5,0-26.53-66.3h53l-26.52,66.3Zm-333,0-26.52-66.3h53l-26.52,66.3Zm-999,0-26.52-66.3h53L971.29,1402Zm1831.58,0-26.52-66.3h53l-26.52,66.3Zm-1998.09,0-26.52-66.3h53L804.78,1402Zm-666,0-26.52-66.3h53L138.76,1402Zm1498.56,0-26.52-66.3h53l-26.52,66.3Zm166.51,0-26.53-66.3h53l-26.52,66.3Zm-1332.06,0-26.52-66.3h53L471.77,1402Zm999,0-26.52-66.3h53l-26.52,66.3Zm-1165.55,0-26.52-66.3h53.05L305.26,1402Zm832.54,0-26.52-66.3h53L1137.8,1402Zm1498.56,0-26.52-66.3h53l-26.52,66.3Zm333,0-26.52-66.3h53.05l-26.53,66.3Zm-832.53,0-26.52-66.3h53l-26.52,66.3Zm-832.54,0-26.52-66.3h53L1304.3,1402Zm469.32-68.8H1723l25.29-63.22,25.3,63.22Zm499.52,0h-50.59q12.64-31.61,25.3-63.22l25.29,63.22Zm-1165.55,0H1057q12.64-31.61,25.29-63.22l25.3,63.22Zm832.53,0h-50.58l25.29-63.22,25.29,63.22Zm-1332,0H557.48l25.29-63.22,25.3,63.22Zm999,0h-50.59l25.3-63.22,25.29,63.22Zm-1165.55,0H391l25.29-63.22,25.29,63.22Zm999,0H1390l25.29-63.22,25.29,63.22Zm1665.07,0h-50.58l25.29-63.22,25.29,63.22Zm-2830.62,0H224.47l25.29-63.22,25.29,63.22Zm2497.61,0h-50.58q12.63-31.61,25.29-63.22l25.29,63.22Zm-1498.57,0h-50.58l25.29-63.22,25.29,63.22Zm1332.06,0h-50.58l25.29-63.22,25.29,63.22Zm-499.52,0h-50.58l25.29-63.22,25.29,63.22Zm832.54,0h-50.59l25.29-63.22,25.3,63.22Zm-2164.6,0H724l25.29-63.22,25.29,63.22Zm166.51,0H890.5l25.29-63.22,25.29,63.22Zm1498.56,0h-50.58l25.29-63.22,25.29,63.22Zm277.51,0h-50.58l25.29-63.22,25.29,63.22Zm-333,0h-50.58l25.29-63.22,25.29,63.22Zm-499.52,0H1834l25.29-63.22,25.29,63.22Zm-666,0H1168l25.29-63.22,25.29,63.22Zm832.54,0h-50.59l25.3-63.22,25.29,63.22Zm-333,0h-50.58l25.29-63.22,25.29,63.22Zm832.54,0h-50.59l25.3-63.22,25.29,63.22Zm-2164.59,0H335.47l25.29-63.22,25.3,63.22Zm2664.11,0h-50.59l25.3-63.22,25.29,63.22Zm-2830.62,0H169l25.3-63.22,25.29,63.22Zm1165.55,0h-50.58l25.29-63.22,25.29,63.22Zm1498.56,0h-50.58l25.29-63.22,25.29,63.22Zm-666,0h-50.58l25.29-63.22,25.29,63.22Zm-1665.07,0H502l25.29-63.22,25.29,63.22Zm999.05,0H1501l25.3-63.22,25.29,63.22Zm-499.52,0H1001.5l25.29-63.22,25.3,63.22Zm-333,0H668.49l25.29-63.22,25.29,63.22Zm166.51,0H835l25.3-63.22,25.29,63.22ZM777,1330.33l-25.29-63.22h50.58L777,1330.33Zm166.51,0-25.29-63.22h50.58l-25.29,63.22Zm832.53,0-25.29-63.22h50.58l-25.29,63.22Zm-666,0-25.3-63.22h50.59l-25.29,63.22Zm499.52,0-25.3-63.22h50.59l-25.29,63.22Zm-1332.06,0-25.29-63.22H302.8l-25.29,63.22Zm999,0-25.29-63.22h50.58l-25.29,63.22Zm1498.57,0-25.29-63.22h50.58l-25.29,63.22Zm-2331.1,0-25.29-63.22h50.58L444,1330.33Zm999,0-25.29-63.22h50.58l-25.29,63.22Zm1498.56,0-25.29-63.22h50.59l-25.3,63.22Zm-2830.61,0-25.3-63.22H136.3L111,1330.33Zm1998.08,0-25.29-63.22h50.58l-25.29,63.22Zm-1498.56,0-25.3-63.22h50.59l-25.29,63.22Zm1831.57,0-25.29-63.22h50.58l-25.29,63.22Zm-499.52,0-25.29-63.22h50.58l-25.29,63.22Zm666,0-25.29-63.22h50.58l-25.29,63.22Zm-333,0-25.29-63.22h50.59l-25.3,63.22Zm-1609.56,0-25.29-63.22h50.58L666,1330.33Zm1332.05,0-25.29-63.22h50.59l-25.3,63.22Zm-1665.07,0-25.29-63.22h50.59L333,1330.33Zm-166.5,0-25.29-63.22H191.8l-25.29,63.22Zm1998.08,0-25.29-63.22h50.58l-25.29,63.22Zm-1165.55,0-25.29-63.22h50.58L999,1330.33Zm666,0-25.29-63.22h50.58l-25.29,63.22Zm1332.05,0-25.29-63.22h50.59l-25.3,63.22Zm-1165.54,0-25.29-63.22h50.58l-25.29,63.22Zm499.52,0-25.29-63.22h50.58l-25.29,63.22Zm-999,0-25.29-63.22h50.58l-25.29,63.22Zm1165.54,0-25.29-63.22h50.59l-25.3,63.22Zm166.51,0-25.29-63.22h50.58l-25.29,63.22Zm166.51,0-25.29-63.22h50.58l-25.29,63.22Zm-1998.08,0-25.3-63.22h50.59l-25.29,63.22Zm-333,0-25.29-63.22h50.58l-25.29,63.22Zm999,0-25.29-63.22h50.59l-25.3,63.22Zm-333,0-25.29-63.22h50.58l-25.29,63.22Zm1078.61-67.39H2196l24.06-60.15,24.07,60.15Zm666,0h-48.12l24.06-60.15,24.06,60.15Zm-2664.11,0H198L222,1202.79l24.06,60.15Zm499.52,0H697.47l24.06-60.15,24.06,60.15Zm666,0H1363.5l24.06-60.15,24.06,60.15Zm1665.07,0h-48.12l24.06-60.15,24.06,60.15Zm-333,0h-48.13l24.06-60.15,24.07,60.15Zm-1831.58,0H864q12-30.07,24.07-60.15l24.06,60.15Zm832.54,0h-48.13l24.06-60.15,24.07,60.15Zm-1165.56,0H531L555,1202.79l24.06,60.15Zm999.05,0H1530q12-30.07,24.07-60.15l24.06,60.15Zm999,0h-48.12l24.06-60.15,24.06,60.15Zm-1332.06,0H1197l24.06-60.15,24.06,60.15Zm-832.53,0H364.45q12-30.07,24.06-60.15l24.07,60.15Zm1498.56,0H1863l24.06-60.15,24.06,60.15Zm-832.53,0h-48.13l24.06-60.15,24.07,60.15Zm999,0h-48.12q12-30.07,24.06-60.15l24.06,60.15Zm333,0h-48.12l24.06-60.15,24.06,60.15Zm55.51,0H2418l24.06-60.15,24.07,60.15Zm-832.54,0H1585.5q12-30.07,24.07-60.15l24.06,60.15Zm666,0h-48.13q12-30.07,24.06-60.15l24.07,60.15Zm-499.52,0H1752l24.06-60.15,24.07,60.15Zm333,0H2085l24.06-60.15,24.06,60.15Zm-1498.56,0H586.46l24.07-60.15,24.06,60.15Zm1998.08,0h-48.12l24.06-60.15,24.06,60.15Zm-1665.07,0H919.48l24.06-60.15,24.06,60.15Zm1831.58,0h-48.13q12-30.07,24.07-60.15l24.06,60.15Zm-1998.09,0H753L777,1202.79l24.06,60.15Zm333,0H1086l24.07-60.15,24.06,60.15Zm-832.54,0H253.45l24.06-60.15,24.06,60.15Zm2664.12,0h-48.13l24.06-60.15,24.07,60.15Zm166.5,0h-48.12l24.06-60.15,24.06,60.15Zm-1831.58,0h-48.12l24.06-60.15,24.06,60.15Zm666,0h-48.12l24.06-60.15,24.06,60.15Zm-499.52,0H1419l24.06-60.15,24.06,60.15Zm-999,0H420L444,1202.79l24.06,60.15Zm1890.77-4.23-24.06-60.15h48.12l-24.06,60.15Zm-166.51,0-24.06-60.15h48.12l-24.06,60.15Zm-666,0-24.07-60.15h48.13l-24.06,60.15Zm1165.54,0-24.06-60.15h48.12l-24.06,60.15Zm-832.53,0-24.06-60.15h48.12l-24.06,60.15Zm666,0-24.07-60.15h48.13l-24.06,60.15Zm-832.54,0-24.06-60.15h48.12l-24.06,60.15Zm-1498.56,0-24.07-60.15h48.13l-24.06,60.15Zm999,0-24.06-60.15h48.12l-24.06,60.15Zm-499.52,0-24.06-60.15h48.12l-24.06,60.15Zm2331.1,0-24.06-60.15h48.12l-24.06,60.15Zm-2164.59,0-24.07-60.15h48.13l-24.06,60.15Zm499.52,0-24.06-60.15h48.12l-24.06,60.15Zm1498.56,0-24.06-60.15h48.12l-24.06,60.15Zm-1831.58,0-24.06-60.15h48.13l-24.07,60.15Zm-666,0-24.06-60.15h48.13l-24.07,60.15Zm1665.08,0-24.07-60.15h48.13l-24.06,60.15Zm-1498.57,0-24.06-60.15h48.13l-24.07,60.15Zm-55.5,0-24.06-60.15h48.12l-24.06,60.15Zm1665.07,0-24.06-60.15h48.12l-24.06,60.15Zm666,0-24.07-60.15h48.13l-24.06,60.15Zm-832.54,0-24.06-60.15h48.12l-24.06,60.15Zm-1165.55,0-24.06-60.15h48.13l-24.07,60.15Zm-166.5,0-24.06-60.15h48.12l-24.06,60.15Zm999,0-24.06-60.15h48.12l-24.06,60.15Zm1332.05,0-24.06-60.15h48.13l-24.07,60.15Zm-1665.07,0-24.06-60.15h48.13l-24.07,60.15Zm499.53,0-24.07-60.15h48.13l-24.06,60.15Zm832.53,0-24.06-60.15h48.12l-24.06,60.15Zm-1165.55,0-24.06-60.15h48.12l-24.06,60.15Zm-333,0-24.06-60.15h48.12l-24.06,60.15Zm-832.54,0-24.06-60.15h48.13l-24.07,60.15Zm2164.59,0-24.06-60.15h48.13l-24.07,60.15Zm-2331.09,0-24.07-60.15h48.13l-24.06,60.15Zm2164.59,0-24.07-60.15h48.13l-24.06,60.15Zm-1332.06,0-24.06-60.15h48.12l-24.06,60.15Zm1798.91-66h-45.67q11.41-28.53,22.84-57.08l22.83,57.08Zm-499.52,0H2225q11.41-28.53,22.84-57.08l22.83,57.08Zm-166.51,0H2058.5q11.41-28.53,22.84-57.08l22.83,57.08Zm999,0h-45.66l22.83-57.08,22.83,57.08Zm-1998.08,0h-45.67l22.83-57.08,22.84,57.08Zm1332,0h-45.66l22.83-57.08,22.83,57.08Zm-832.53,0H1559q11.41-28.53,22.84-57.08l22.83,57.08Zm333,0H1892l22.83-57.08,22.83,57.08Zm-666,0H1226l22.83-57.08,22.84,57.08Zm1332.05,0H2558l22.83-57.08,22.83,57.08Zm-1665.07,0H893l22.83-57.08,22.83,57.08Zm1998.08,0H2891l22.83-57.08,22.83,57.08Zm-1165.54,0h-45.67l22.83-57.08,22.84,57.08Zm-333,0h-45.66l22.83-57.08,22.83,57.08Zm-1165.55,0H226.93l22.83-57.08,22.83,57.08Zm499.52,0H726.45l22.83-57.08,22.83,57.08Zm-333,0H393.44l22.83-57.08,22.83,57.08Zm166.51,0H559.94l22.83-57.08,22.84,57.08Zm2553.11,0h-45.67l22.83-57.08,22.84,57.08Zm-1998.09,0H1115l22.83-57.08,22.83,57.08Zm832.53,0H1947.5l22.83-57.08,22.83,57.08Zm-1498.56,0H448.94l22.83-57.08,22.83,57.08Zm166.51,0H615.45l22.83-57.08,22.83,57.08Zm333,0H948.46l22.83-57.08,22.83,57.08Zm1165.55,0H2114l22.83-57.08,22.83,57.08Zm-1831.57,0H282.43l22.83-57.08,22.84,57.08Zm1165.54,0H1448l22.83-57.08,22.83,57.08Zm-666,0H782l22.83-57.08,22.84,57.08Zm999,0H1781q11.41-28.53,22.84-57.08l22.83,57.08Zm-499.52,0h-45.67l22.83-57.08,22.84,57.08Zm1665.07,0h-45.67l22.83-57.08,22.84,57.08Zm-666,0h-45.67q11.41-28.53,22.84-57.08l22.83,57.08Zm333,0h-45.66l22.83-57.08,22.83,57.08Zm166.51,0H2780q11.41-28.53,22.84-57.08l22.83,57.08Zm-333,0H2447l22.83-57.08,22.84,57.08Zm-832.54,0h-45.66l22.83-57.08,22.83,57.08Zm-161.59-5.63L1475.73,1130h45.66l-22.83,57.09Zm55.51,0L1531.23,1130h45.67l-22.83,57.09Zm111,0L1642.24,1130h45.66l-22.83,57.09Zm-277.51,0L1364.72,1130h45.67l-22.83,57.09Zm1443.06,0L2807.79,1130h45.66l-22.83,57.09Zm-499.52,0L2308.27,1130h45.66l-22.83,57.09Zm55.5,0L2363.77,1130h45.66l-22.83,57.09Zm-555,0L1808.75,1130h45.66l-22.83,57.09Zm888,0L2696.78,1130h45.67l-22.84,57.09Zm-2497.6,0L199.18,1130h45.66L222,1187.1Zm-55.5,0L143.67,1130h45.67l-22.83,57.09Zm1998.08,0L2141.76,1130h45.66l-22.83,57.09Zm-1776.08,0L365.68,1130h45.67l-22.84,57.09Zm1831.58,0L2197.26,1130h45.67l-22.84,57.09Zm277.51,0L2474.77,1130h45.67l-22.84,57.09Zm55.51,0L2530.28,1130h45.66l-22.83,57.09Zm-1387.56,0L1142.72,1130h45.66l-22.83,57.09Zm55.5,0L1198.22,1130h45.67l-22.84,57.09Zm666,0L1864.25,1130h45.66l-22.83,57.09Zm-1054.54,0L809.7,1130h45.67l-22.83,57.09Zm55.5,0L865.2,1130h45.67L888,1187.1Zm444,0L1309.22,1130h45.67l-22.83,57.09Zm1720.57,0L3029.8,1130h45.66l-22.83,57.09Zm-55.51,0L2974.29,1130H3020l-22.84,57.09Zm-2442.1,0L532.19,1130h45.67L555,1187.1Zm-55.5,0L476.69,1130h45.66l-22.83,57.09Zm1221.05,0L1697.74,1130h45.67l-22.84,57.09Zm-999,0L698.7,1130h45.66l-22.83,57.09Zm1942.58,0L2641.28,1130h45.66l-22.83,57.09Zm222,0L2863.29,1130H2909l-22.83,57.09ZM999,1187.1,976.21,1130h45.66L999,1187.1Zm55.5,0L1031.71,1130h45.67l-22.84,57.09Zm999.05,0L2030.75,1130h45.67l-22.83,57.09Zm-55.51,0L1975.25,1130h45.67l-22.84,57.09ZM333,1187.1,310.18,1130h45.67L333,1187.1Zm333,0L643.2,1130h45.66L666,1187.1Zm2297.2-64.58H2920l21.6-54,21.61,54Zm-832.54,0h-43.2l21.6-54,21.6,54Zm-1498.56,0H588.92q10.8-27,21.61-54l21.6,54Zm-166.51,0h-43.2l21.6-54,21.6,54Zm499.52,0H921.93q10.82-27,21.61-54l21.6,54Zm1665.07,0H2587l21.6-54,21.6,54Zm-166.5,0H2420.5l21.6-54,21.61,54Zm-1165.55,0H1255l21.6-54,21.61,54Zm-499.53,0h-43.2l21.6-54,21.6,54Zm2331.1,0h-43.2l21.6-54,21.6,54Zm-1665.07,0h-43.2l21.6-54,21.6,54Zm832.54,0H2254q10.8-27,21.6-54l21.61,54Zm-499.52,0h-43.21l21.6-54,21.61,54Zm-166.51,0H1588l21.6-54,21.6,54Zm-1332.06,0h-43.2l21.6-54,21.6,54Zm832.54,0h-43.21q10.82-27,21.61-54l21.6,54Zm832.54,0H1921l21.6-54,21.61,54Zm832.53,0h-43.21l21.61-54,21.6,54Zm-610.53,0H2143l21.6-54,21.6,54Zm499.52,0h-43.2l21.6-54,21.6,54Zm-2331.09,0H311.41l21.6-54,21.61,54Zm999,0h-43.21q10.8-27,21.61-54l21.6,54Zm1498.56,0H2809l21.6-54,21.6,54Zm-2331.1,0h-43.2l21.6-54,21.6,54Zm333,0H810.93q10.8-27,21.61-54l21.6,54Zm1665.07,0H2476l21.6-54,21.61,54Zm499.52,0h-43.21q10.82-27,21.6-54l21.61,54Zm-999,0h-43.2l21.6-54,21.6,54Zm-832.53,0H1144l21.6-54,21.6,54Zm666,0H1810q10.79-27,21.6-54l21.6,54Zm499.52,0h-43.2l21.6-54,21.6,54Zm-1665.07,0H644.42q10.82-27,21.61-54l21.6,54Zm2497.61,0H3142l21.6-54,21.61,54Zm-1665.08,0H1477l21.6-54,21.6,54Zm166.51,0h-43.2l21.6-54,21.6,54Zm-666,0h-43.2l21.6-54,21.6,54Zm1338.21-7-21.6-54h43.2l-21.6,54Zm55.5,0-21.6-54H2436l-21.6,54Zm499.52,0-21.6-54h43.2l-21.6,54Zm166.51,0-21.6-54H3102l-21.6,54Zm-999,0-21.61-54h43.21l-21.6,54Zm-55.5,0-21.61-54h43.21l-21.6,54Zm-499.52,0-21.61-54h43.21l-21.6,54Zm1165.54,0-21.6-54h43.2l-21.6,54Zm-2331.1,0-21.6-54h43.21l-21.61,54Zm55.51,0-21.6-54h43.2l-21.6,54Zm2109.09,0-21.6-54H2547l-21.6,54Zm-1498.57,0-21.6-54h43.21l-21.61,54Zm888,0-21.6-54h43.2l-21.6,54Zm-55.5,0-21.61-54h43.21l-21.6,54Zm888,0-21.61-54H2769l-21.6,54Zm-1498.57,0-21.6-54h43.21l-21.61,54Zm-55.5,0-21.6-54h43.2l-21.6,54Zm-333,0-21.61-54h43.21l-21.6,54Zm55.5,0-21.6-54h43.2l-21.6,54Zm1665.07,0-21.61-54h43.21l-21.6,54Zm-832.54,0-21.6-54h43.21l-21.61,54Zm-333,0-21.6-54h43.2l-21.6,54Zm1609.57,0-21.6-54h43.2l-21.6,54Zm-1665.07,0-21.61-54h43.21l-21.6,54Zm-1110,0-21.6-54h43.2l-21.6,54Zm-55.5,0-21.61-54h43.21l-21.6,54Zm555,0-21.6-54h43.2l-21.6,54Zm1443.06,0-21.6-54h43.2l-21.6,54Zm-610.52,0-21.61-54h43.21l-21.6,54Zm-999,0-21.6-54h43.21l-21.61,54Zm-55.5,0-21.6-54h43.21l-21.61,54Zm1720.58,0-21.61-54h43.21l-21.6,54Zm-555,0-21.6-54h43.2l-21.6,54Zm1165.55,0-21.6-54H2880l-21.6,54Zm-1776.08,0-21.6-54h43.21l-21.61,54Zm-388.51,0-21.6-54h43.2l-21.6,54Zm1352.43-63.17h-40.75q10.18-25.47,20.38-50.93l20.37,50.93Zm-999,0h-40.75l20.37-50.93,20.38,50.93Zm1831.57,0H2838l20.37-50.93,20.37,50.93Zm-166.5,0h-40.75l20.37-50.93,20.38,50.93Zm-333,0h-40.74l20.37-50.93,20.37,50.93Zm-1831.57,0H506.9l20.37-50.93,20.38,50.93Zm166.5,0H673.41l20.37-50.93,20.37,50.93Zm1831.58,0H2505q10.18-25.47,20.38-50.93l20.37,50.93Zm-832.54,0h-40.74l20.37-50.93,20.37,50.93Zm-499.52,0h-40.74l20.37-50.93,20.37,50.93Zm166.51,0h-40.75q10.2-25.47,20.38-50.93l20.37,50.93Zm166.51,0h-40.75q10.18-25.47,20.38-50.93l20.37,50.93Zm-1165.55,0H340.39l20.37-50.93,20.38,50.93Zm499.52,0H839.91q10.2-25.47,20.38-50.93l20.37,50.93Zm2164.59,0h-40.74q10.17-25.47,20.37-50.93l20.37,50.93Zm-1165.55,0H1839q10.2-25.47,20.38-50.93l20.37,50.93Zm1332.06,0H3171l20.37-50.93,20.38,50.93Zm-999.05,0H2172l20.37-50.93,20.37,50.93Zm610.53,0h-40.75q10.2-25.47,20.38-50.93l20.37,50.93Zm-666,0h-40.74l20.37-50.93,20.37,50.93Zm-999,0h-40.74l20.37-50.93,20.37,50.93Zm1831.58,0H2949l20.37-50.93,20.38,50.93Zm-1165.55,0h-40.75q10.18-25.47,20.38-50.93l20.37,50.93Zm-166.51,0H1617l20.37-50.93,20.37,50.93Zm666,0H2283q10.19-25.47,20.38-50.93l20.37,50.93Zm832.54,0h-40.75l20.37-50.93,20.38,50.93Zm-2830.62,0H284.89l20.37-50.93,20.38,50.93Zm499.52,0H784.41l20.37-50.93,20.38,50.93Zm666,0h-40.74l20.37-50.93,20.37,50.93Zm-166.5,0h-40.75l20.37-50.93,20.38,50.93Zm1332.06,0H2616l20.37-50.93,20.38,50.93Zm-666,0H1950l20.37-50.93,20.38,50.93Zm-999,0H950.92l20.37-50.93,20.37,50.93Zm1498.57,0h-40.75l20.37-50.93,20.38,50.93Zm-1831.58,0H617.9q10.2-25.47,20.38-50.93l20.37,50.93Zm-166.51,0H451.4l20.37-50.93,20.37,50.93Zm118.39-8.45-20.38-50.93H630.9l-20.37,50.93Zm-55.51,0-20.37-50.93H575.4L555,1043.86Zm2164.59,0-20.37-50.93H2740l-20.38,50.93Zm-1165.54,0-20.38-50.93h40.75l-20.37,50.93Zm55.5,0-20.37-50.93h40.74l-20.37,50.93Zm444,0-20.38-50.93H2074l-20.37,50.93Zm-166.51,0-20.38-50.93h40.75l-20.37,50.93Zm55.5,0-20.37-50.93H1963l-20.38,50.93Zm1110.05,0-20.37-50.93H3073l-20.37,50.93Zm-2775.12,0-20.37-50.93h40.74l-20.37,50.93Zm999,0-20.37-50.93h40.75l-20.38,50.93Zm-888,0-20.37-50.93h40.75l-20.38,50.93Zm55.51,0-20.37-50.93h40.74L444,1043.86Zm2164.59,0-20.37-50.93H2629l-20.37,50.93Zm-55.5,0-20.38-50.93h40.75l-20.37,50.93Zm-1332.06,0-20.37-50.93h40.75l-20.38,50.93Zm166.51,0-20.38-50.93h40.75l-20.37,50.93Zm721.53,0-20.37-50.93h40.74l-20.37,50.93Zm-1165.55,0-20.37-50.93h40.74l-20.37,50.93Zm-55.5,0-20.38-50.93h40.75L888,1043.86Zm1387.55,0-20.37-50.93H2296l-20.38,50.93Zm-832.53,0-20.37-50.93h40.74l-20.37,50.93Zm333,0-20.37-50.93h40.75l-20.38,50.93Zm-1054.54,0-20.37-50.93H741.9l-20.37,50.93Zm999,0-20.37-50.93H1741l-20.38,50.93Zm1221.05,0-20.37-50.93H2962l-20.38,50.93Zm-55.5,0-20.37-50.93h40.74l-20.37,50.93Zm-2109.09,0-20.37-50.93H797.4L777,1043.86Zm-555,0-20.37-50.93h40.74L222,1043.86Zm1998.08,0-20.37-50.93h40.75l-20.38,50.93Zm555,0-20.38-50.93h40.75l-20.37,50.93Zm-1665.07,0-20.37-50.93h40.74l-20.37,50.93Zm-55.51,0-20.37-50.93h40.75l-20.38,50.93Zm2053.59,0-20.37-50.93h40.74l-20.37,50.93Zm-721.53,0-20.37-50.93H2407l-20.37,50.93Zm55.5,0-20.37-50.93h40.75l-20.38,50.93ZM2072.73,982.1h-38.29q9.57-23.93,19.15-47.86l19.14,47.86Zm-1498.56,0H535.88L555,934.24l19.15,47.86Zm2331.09,0H2867l19.14-47.86,19.14,47.86Zm-1665.06,0h-38.29l19.14-47.86,19.15,47.86Zm1498.56,0h-38.29l19.14-47.86,19.15,47.86Zm-1332.06,0h-38.29q9.57-23.93,19.15-47.86l19.14,47.86Zm-499.52,0H868.89L888,934.24l19.14,47.86Zm999,0h-38.28l19.14-47.86,19.14,47.86Zm1165.55,0h-38.29q9.58-23.93,19.15-47.86l19.14,47.86Zm-2664.11,0H369.37l19.14-47.86,19.15,47.86Zm2830.62,0H3200q9.57-23.93,19.15-47.86l19.14,47.86Zm-832.54,0h-38.28l19.14-47.86,19.14,47.86Zm-832.53,0h-38.29l19.15-47.86,19.14,47.86Zm-499.52,0H1035.4l19.14-47.86,19.15,47.86Zm1165.55,0H2201l19.14-47.86,19.15,47.86Zm333,0H2534q9.59-23.93,19.15-47.86l19.14,47.86Zm-1831.58,0H702.39l19.14-47.86,19.14,47.86Zm999.05,0h-38.29l19.14-47.86,19.15,47.86Zm-1221.06,0H480.38l19.14-47.86,19.14,47.86Zm1332.06,0h-38.29q9.58-23.93,19.15-47.86l19.14,47.86Zm-999,0H813.39l19.15-47.86,19.14,47.86Zm2331.1,0h-38.29l19.14-47.86,19.15,47.86Zm-832.54,0H2312l19.14-47.86,19.14,47.86Zm-166.51,0h-38.28l19.14-47.86,19.14,47.86Zm499.53,0H2645l19.14-47.86,19.15,47.86Zm-1665.08,0H979.9L999,934.24l19.14,47.86Zm1998.09,0H2978l19.14-47.86,19.15,47.86Zm-2664.11,0H313.87L333,934.24l19.15,47.86Zm2497.6,0h-38.28l19.14-47.86,19.14,47.86Zm-1332.05,0h-38.29l19.14-47.86,19.15,47.86Zm999,0h-38.29l19.14-47.86,19.15,47.86Zm-1332.06,0H1146.4q9.58-23.93,19.15-47.86l19.14,47.86Zm-499.52,0H646.88q9.57-23.93,19.15-47.86l19.14,47.86Zm666,0h-38.29q9.57-23.93,19.15-47.86l19.14,47.86Zm333,0h-38.28l19.14-47.86,19.14,47.86Zm333,0h-38.29l19.14-47.86,19.15,47.86Zm-879.43-9.86-19.15-47.86h38.29l-19.14,47.86Zm666,0-19.15-47.86H1823l-19.14,47.86Zm166.5,0-19.14-47.86h38.29l-19.15,47.86Zm-55.5,0-19.14-47.86H1934l-19.14,47.86Zm721.53,0-19.14-47.86h38.29l-19.15,47.86Zm-2220.09,0-19.14-47.86h38.28l-19.14,47.86Zm388.51,0-19.14-47.86h38.29l-19.15,47.86Zm1498.57,0-19.15-47.86h38.29l-19.14,47.86Zm-1831.58,0-19.15-47.86h38.29l-19.14,47.86Zm1609.57,0-19.15-47.86h38.29l-19.14,47.86Zm-666,0-19.14-47.86h38.28l-19.14,47.86Zm1554.06,0-19.14-47.86h38.29l-19.15,47.86Zm-1665.07,0-19.14-47.86h38.29l-19.15,47.86Zm166.51,0-19.14-47.86H1490l-19.15,47.86Zm1110.05,0-19.15-47.86H2600l-19.14,47.86Zm333,0-19.14-47.86H2933l-19.14,47.86Zm-2664.11,0-19.14-47.86H268.9l-19.14,47.86Zm2830.62,0-19.15-47.86h38.29l-19.14,47.86Zm-610.53,0-19.14-47.86H2489l-19.15,47.86Zm-1387.56,0-19.14-47.86h38.29l-19.15,47.86Zm1720.58,0-19.15-47.86H2822l-19.14,47.86Zm-55.5,0-19.15-47.86h38.29l-19.14,47.86Zm-999,0-19.14-47.86h38.29l-19.15,47.86Zm-999,0-19.14-47.86h38.29l-19.15,47.86Zm-444,0-19.14-47.86H324.4l-19.14,47.86Zm666,0-19.14-47.86h38.28l-19.14,47.86Zm-55.5,0-19.14-47.86h38.28l-19.14,47.86Zm1221.05,0-19.14-47.86H2156l-19.14,47.86Zm-888,0-19.14-47.86H1268l-19.15,47.86Zm1887.08,0-19.14-47.86H3155l-19.15,47.86Zm-721.53,0-19.14-47.86h38.28l-19.14,47.86Zm-166.5,0-19.15-47.86H2267l-19.14,47.86Zm-1665.08,0-19.14-47.86h38.29l-19.15,47.86Zm55.51,0-19.15-47.86h38.29l-19.14,47.86Zm943.54,0-19.15-47.86H1601l-19.14,47.86Zm55.5,0-19.14-47.86h38.28l-19.14,47.86Zm73.41-60.35h-35.82l17.91-44.79,17.91,44.79Zm832.54,0h-35.83q9-22.39,17.92-44.79l17.91,44.79Zm-499.52,0h-35.83q9-22.39,17.92-44.79l17.91,44.79Zm1165.55,0h-35.83l17.91-44.79,17.92,44.79Zm-499.52,0H2674l17.91-44.79,17.92,44.79Zm-499.52,0h-35.83l17.91-44.79,17.92,44.79Zm-1332.06,0H842.37l17.92-44.79,17.91,44.79Zm666,0H1508.4q9-22.39,17.92-44.79l17.91,44.79Zm832.53,0h-35.83q9-22.39,17.92-44.79l17.91,44.79Zm-499.52,0h-35.83l17.92-44.79,17.91,44.79Zm-499.52,0h-35.83l17.92-44.79,17.91,44.79Zm-832.53,0H509.36l17.91-44.79,17.92,44.79Zm2331.1,0h-35.83l17.91-44.79,17.92,44.79Zm-1665.08,0h-35.82l17.91-44.79,17.91,44.79Zm1831.58,0H3007q9-22.39,17.92-44.79l17.91,44.79Zm-1998.08,0h-35.83l17.91-44.79,17.92,44.79Zm-666,0H342.85l17.91-44.79,17.92,44.79Zm333,0H675.87l17.91-44.79,17.91,44.79Zm888,0H1563.9q9-22.39,17.92-44.79l17.91,44.79Zm-666,0H897.88l17.91-44.79,17.91,44.79Zm2164.59,0h-35.83q9-22.39,17.92-44.79l17.91,44.79Zm-1665.07,0H1397.4l17.91-44.79,17.91,44.79Zm-832.53,0H564.86l17.91-44.79,17.92,44.79Zm1498.56,0h-35.83q9-22.39,17.92-44.79l17.91,44.79Zm166.51,0h-35.83q9-22.39,17.92-44.79l17.91,44.79Zm-333,0h-35.82l17.91-44.79,17.91,44.79Zm-666,0h-35.83l17.91-44.79,17.92,44.79Zm1665.06,0H2896l17.91-44.79,17.91,44.79Zm-166.5,0h-35.83q9-22.39,17.92-44.79l17.91,44.79Zm-2331.1,0H398.35q9-22.39,17.92-44.79l17.91,44.79Zm1998.08,0h-35.82l17.91-44.79,17.91,44.79Zm832.54,0H3229l17.92-44.79,17.91,44.79Zm-2164.59,0h-35.83l17.91-44.79,17.92,44.79Zm-333,0H731.37l17.91-44.79,17.92,44.79Zm999,0h-35.83l17.91-44.79,17.92,44.79Zm832.53,0h-35.83q9-22.39,17.92-44.79l17.91,44.79Zm9.84-11.27-17.91-44.79h35.82l-17.91,44.79Zm-2331.1,0L259.6,855.83h35.83l-17.92,44.79Zm499.52,0-17.91-44.79H795L777,900.62Zm999,0-17.91-44.79H1794l-17.92,44.79Zm499.52,0-17.91-44.79h35.83l-17.92,44.79Zm-1165.54,0-17.92-44.79H1128l-17.91,44.79Zm1665.07,0-17.92-44.79H2793l-17.91,44.79Zm333,0-17.91-44.79H3126l-17.91,44.79Zm-1665.07,0-17.91-44.79H1461l-17.92,44.79Zm499.52,0-17.91-44.79h35.83l-17.92,44.79Zm166.51,0-17.91-44.79H2127l-17.91,44.79ZM444,900.62,426.1,855.83h35.83L444,900.62Zm2497.6,0-17.91-44.79h35.83l-17.92,44.79Zm-1665.07,0-17.91-44.79h35.83l-17.92,44.79Zm-333,0-17.91-44.79h35.82l-17.91,44.79Zm1498.56,0-17.91-44.79H2460l-17.92,44.79Zm-1831.57,0-17.92-44.79h35.83l-17.91,44.79Zm999,0-17.91-44.79h35.82l-17.91,44.79Zm222,0-17.92-44.79h35.83l-17.91,44.79Zm-666,0-17.92-44.79h35.83l-17.91,44.79Zm-333,0-17.92-44.79h35.83l-17.91,44.79Zm1831.57,0-17.91-44.79H2682l-17.92,44.79Zm499.52,0-17.91-44.79h35.83l-17.92,44.79Zm-832.53,0-17.92-44.79H2349l-17.91,44.79ZM333,900.62,315.1,855.83h35.83L333,900.62Zm1665.07,0-17.91-44.79H2016l-17.92,44.79Zm-499.52,0-17.91-44.79h35.83l-17.92,44.79Zm-166.5,0-17.92-44.79H1350l-17.91,44.79Zm333,0-17.92-44.79H1683l-17.91,44.79Zm1165.55,0-17.91-44.79h35.82l-17.91,44.79Zm-666,0-17.91-44.79h35.83l-17.92,44.79Zm832.53,0-17.91-44.79H3015l-17.92,44.79Zm-499.52,0-17.91-44.79h35.83l-17.92,44.79ZM666,900.62l-17.92-44.79h35.83L666,900.62Zm-166.51,0-17.91-44.79h35.82l-17.91,44.79Zm499.52,0-17.91-44.79H1017L999,900.62Zm571.71-58.94h-33.37q8.34-20.85,16.69-41.71l16.68,41.71Zm1332.06,0h-33.37L2886.12,800l16.69,41.71Zm333,0h-33.37q8.34-20.85,16.69-41.71l16.68,41.71Zm-832.54,0h-33.36L2386.6,800l16.68,41.71Zm-1665.07,0H704.85L721.53,800l16.68,41.71Zm1831.58,0h-33.37q8.35-20.85,16.69-41.71l16.68,41.71Zm499.52,0h-33.37q8.36-20.85,16.69-41.71l16.68,41.71Zm-2164.59,0H871.35L888,800l16.68,41.71Zm1831.58,0h-33.37L2719.61,800l16.69,41.71Zm-1498.57,0h-33.36L1221.05,800l16.68,41.71Zm832.54,0H2036.9q8.34-20.85,16.69-41.71l16.68,41.71Zm-666,0h-33.36q8.32-20.85,16.68-41.71l16.68,41.71Zm-832.53,0H538.34L555,800l16.69,41.71Zm499.52,0h-33.37L1054.54,800l16.69,41.71Zm1165.55,0h-33.37L2220.09,800l16.69,41.71Zm-499.53,0h-33.36L1720.57,800l16.68,41.71Zm166.51,0H1870.4L1887.08,800l16.68,41.71Zm-1498.56,0H371.83q8.34-20.85,16.68-41.71l16.69,41.71Zm2886.12,0H3258q8.36-20.85,16.69-41.71l16.68,41.71Zm-1665.07,0h-33.37L1609.57,800l16.68,41.71Zm1332.06,0h-33.37L2941.62,800l16.69,41.71Zm-499.52,0h-33.37L2442.1,800l16.69,41.71Zm666,0h-33.36L3108.13,800l16.68,41.71Zm-2164.58,0H926.85q8.35-20.85,16.69-41.71l16.69,41.71Zm999,0H1925.9L1942.58,800l16.69,41.71Zm832.53,0h-33.37L2775.12,800l16.68,41.71Zm-666,0h-33.36q8.33-20.85,16.68-41.71l16.68,41.71Zm-832.53,0h-33.37L1276.55,800l16.69,41.71Zm-666,0H593.84q8.34-20.85,16.69-41.71l16.68,41.71Zm166.51,0H760.35L777,800l16.69,41.71Zm333,0h-33.37L1110.05,800l16.68,41.71Zm1498.56,0h-33.36L2608.61,800l16.68,41.71Zm-832.53,0h-33.37L1776.07,800l16.69,41.71Zm-333,0h-33.37L1443.06,800l16.69,41.71Zm832.53,0h-33.37L2275.59,800l16.69,41.71Zm-1831.58,0H427.33Q435.68,820.83,444,800l16.68,41.71ZM1970.33,829l-16.68-41.71H1987L1970.33,829Zm55.51,0-16.69-41.71h33.37L2025.84,829ZM804.78,829,788.1,787.29h33.37L804.78,829Zm55.51,0L843.6,787.29H877L860.29,829Zm111,0-16.68-41.71H988L971.29,829Zm55.5,0-16.68-41.71h33.37L1026.79,829Zm1110.05,0-16.68-41.71h33.36L2136.84,829Zm666,0-16.68-41.71h33.36L2802.87,829Zm-999,0-16.69-41.71h33.37L1803.83,829Zm55.5,0-16.69-41.71H1876L1859.33,829ZM360.76,829l-16.68-41.71h33.37L360.76,829Zm2664.12,0-16.69-41.71h33.37L3024.88,829Zm-1554.07,0-16.68-41.71h33.37L1470.81,829Zm55.51,0-16.69-41.71H1543L1526.32,829Zm111,0-16.69-41.71H1654L1637.32,829Zm55.5,0-16.68-41.71h33.36L1692.82,829Zm943.54,0-16.68-41.71H2653L2636.36,829Zm55.5,0-16.68-41.71h33.37L2691.86,829Zm444,0-16.68-41.71h33.37L3135.88,829ZM471.77,829l-16.68-41.71h33.36L471.77,829Zm55.5,0-16.68-41.71H544L527.27,829Zm777,0-16.68-41.71H1321L1304.3,829Zm55.51,0-16.69-41.71h33.37L1359.81,829Zm-166.51,0-16.68-41.71H1210L1193.3,829Zm-55.5,0-16.69-41.71h33.37L1137.8,829Zm1165.55,0-16.69-41.71H2320L2303.35,829Zm666,0-16.68-41.71h33.37L2969.37,829Zm-111,0-16.68-41.71h33.37L2858.37,829Zm-666,0-16.68-41.71H2209L2192.34,829ZM305.26,829l-16.68-41.71H322L305.26,829Zm2164.59,0-16.68-41.71h33.37L2469.85,829Zm55.51,0-16.69-41.71H2542L2525.36,829Zm-166.51,0-16.69-41.71h33.37L2358.85,829ZM638.28,829l-16.69-41.71H655L638.28,829Zm55.5,0L677.1,787.29h33.36L693.78,829Zm2497.6,0-16.68-41.71h33.37L3191.38,829Zm-428.56-57.53h-30.91q7.73-19.32,15.46-38.64l15.45,38.64Zm-2164.59,0H567.32l15.45-38.64,15.46,38.64Zm1831.57,0h-30.9l15.45-38.64,15.45,38.64Zm-832.53,0h-30.91q7.73-19.32,15.46-38.64l15.45,38.64Zm1665.07,0h-30.91l15.46-38.64,15.45,38.64Zm-999,0h-30.91q7.72-19.32,15.46-38.64l15.45,38.64Zm-832.54,0h-30.9l15.45-38.64,15.45,38.64Zm-333,0h-30.91l15.45-38.64,15.46,38.64Zm832.53,0h-30.9l15.45-38.64,15.45,38.64Zm-1498.56,0H400.81q7.74-19.32,15.46-38.64l15.45,38.64Zm333,0H733.83l15.45-38.64,15.46,38.64Zm166.5,0H900.33q7.74-19.32,15.46-38.64l15.45,38.64Zm1998.09,0h-30.91l15.45-38.64,15.46,38.64Zm166.5,0h-30.91l15.46-38.64,15.45,38.64Zm-499.52,0H2565.4l15.46-38.64,15.45,38.64Zm-499.52,0h-30.91q7.73-19.32,15.46-38.64l15.45,38.64Zm-832.53,0h-30.91l15.45-38.64,15.46,38.64Zm499.52,0h-30.91l15.45-38.64,15.46,38.64Zm888,0h-30.9l15.45-38.64,15.45,38.64Zm666,0h-30.9l15.45-38.64,15.45,38.64Zm-2497.6,0H789.33l15.45-38.64,15.46,38.64Zm832.53,0h-30.91q7.74-19.32,15.46-38.64l15.45,38.64Zm-1165.55,0h-30.9l15.45-38.64,15.45,38.64Zm1665.07,0h-30.9l15.45-38.64,15.45,38.64Zm-832.53,0h-30.91l15.45-38.64,15.46,38.64Zm1665.07,0h-30.91l15.45-38.64,15.46,38.64Zm-666,0h-30.91q7.74-19.32,15.46-38.64l15.45,38.64Zm-1332.05,0H955.84l15.45-38.64,15.46,38.64Zm999,0h-30.91l15.45-38.64,15.46,38.64Zm-499.52,0h-30.91l15.45-38.64,15.46,38.64Zm-832.54,0H622.82l15.46-38.64,15.45,38.64Zm2164.59,0h-30.91q7.74-19.32,15.46-38.64l15.45,38.64Zm333,0h-30.9l15.45-38.64,15.45,38.64Zm-1998.08,0h-30.91l15.46-38.64,15.45,38.64Zm1332.06,0H2454.4l15.45-38.64,15.46,38.64Zm-666,0h-30.91q7.73-19.32,15.46-38.64l15.45,38.64Zm345.31-14.09-15.46-38.64h30.92l-15.46,38.64Zm499.52,0-15.45-38.64h30.91l-15.46,38.64Zm55.5,0-15.45-38.64h30.91l-15.46,38.64Zm-2220.09,0-15.45-38.64H515l-15.45,38.64Zm55.5,0-15.45-38.64h30.91L555,757.38Zm2442.1,0-15.45-38.64h30.91l-15.46,38.64Zm-1609.56,0-15.45-38.64H1403l-15.45,38.64Zm499.52,0-15.45-38.64h30.9l-15.45,38.64Zm444,0-15.46-38.64h30.91l-15.45,38.64Zm222,0-15.46-38.64h30.91l-15.45,38.64Zm-999,0-15.46-38.64h30.91l-15.45,38.64Zm-55.51,0-15.45-38.64H1514l-15.46,38.64Zm888,0-15.45-38.64h30.91l-15.46,38.64Zm832.54,0-15.46-38.64h30.91l-15.45,38.64Zm-55.51,0-15.45-38.64h30.91l-15.46,38.64Zm-2775.12,0-15.45-38.64H404l-15.46,38.64Zm499.53,0-15.46-38.64h30.91L888,757.38Zm-55.5,0-15.46-38.64H848l-15.45,38.64Zm999,0-15.46-38.64H1847l-15.45,38.64Zm1221.05,0-15.46-38.64h30.91l-15.45,38.64Zm-1887.08,0-15.46-38.64H1181l-15.45,38.64Zm55.5,0-15.45-38.64h30.9l-15.45,38.64Zm1609.57,0-15.46-38.64h30.91l-15.45,38.64Zm-1498.56,0-15.46-38.64h30.91l-15.45,38.64Zm721.53,0-15.46-38.64H2069l-15.45,38.64Zm-55.51,0-15.45-38.64h30.91l-15.46,38.64Zm888,0-15.45-38.64h30.91l-15.46,38.64Zm-1221,0-15.46-38.64h30.92l-15.46,38.64Zm55.5,0-15.45-38.64H1736l-15.46,38.64Zm499.52,0-15.45-38.64h30.91l-15.46,38.64ZM999,757.38l-15.45-38.64h30.91L999,757.38Zm55.5,0-15.45-38.64H1070l-15.46,38.64Zm1443.06,0-15.45-38.64h30.91l-15.46,38.64Zm-1776.07,0-15.45-38.64H737l-15.45,38.64Zm-55.5,0-15.46-38.64h30.91L666,757.38Zm-333,0-15.45-38.64h30.91L333,757.38Zm2622.84-56.12H2927.4l14.22-35.56,14.23,35.56Zm-333,0h-28.44l14.22-35.56,14.22,35.56Zm55.51,0h-28.45l14.22-35.56,14.23,35.56Zm-832.54,0h-28.45q7.11-17.79,14.23-35.56l14.22,35.56Zm-55.5,0h-28.45l14.22-35.56,14.23,35.56Zm-111,0h-28.46l14.23-35.56,14.23,35.56Zm1110,0h-28.45l14.23-35.56,14.22,35.56Zm555,0h-28.44l14.22-35.56,14.22,35.56Zm-55.5,0h-28.45l14.23-35.56,14.22,35.56Zm-2830.62,0H429.79L444,665.7l14.22,35.56Zm1554.07,0h-28.45l14.22-35.56,14.23,35.56Zm-1221,0H762.81L777,665.7l14.23,35.56Zm55.5,0H818.31q7.11-17.79,14.23-35.56l14.22,35.56Zm1609.57,0h-28.45l14.22-35.56,14.23,35.56Zm-111,0h-28.45q7.11-17.79,14.23-35.56l14.22,35.56Zm-55.5,0h-28.45l14.22-35.56,14.23,35.56Zm888,0h-28.45l14.22-35.56,14.23,35.56Zm-2664.11,0H485.3l14.22-35.56,14.23,35.56Zm1443.06,0h-28.45l14.22-35.56,14.23,35.56Zm-444,0h-28.45l14.22-35.56,14.23,35.56Zm-55.5,0h-28.46l14.23-35.56,14.23,35.56Zm-832.54,0H596.3q7.11-17.79,14.23-35.56l14.22,35.56Zm55.5,0H651.8L666,665.7l14.22,35.56Zm610.53,0h-28.45l14.22-35.56,14.23,35.56Zm-111,0h-28.46l14.23-35.56,14.23,35.56Zm999,0h-28.46l14.23-35.56,14.23,35.56Zm-55.51,0h-28.45l14.23-35.56,14.22,35.56Zm-777,0h-28.45q7.11-17.79,14.23-35.56l14.22,35.56Zm1776.08,0h-28.45l14.22-35.56,14.23,35.56Zm-1998.09,0h-28.45q7.11-17.79,14.23-35.56l14.22,35.56Zm1887.08,0H2982.9l14.22-35.56,14.23,35.56Zm-166.51,0h-28.45q7.11-17.79,14.23-35.56l14.22,35.56Zm-1221.05,0h-28.45q7.11-17.79,14.23-35.56l14.22,35.56Zm-610.52,0H984.82L999,665.7l14.23,35.56Zm-55.51,0H929.31l14.23-35.56,14.22,35.56Zm1554.07,0h-28.45l14.22-35.56,14.23,35.56Zm-153-15.5-14.23-35.56h28.45l-14.22,35.56Zm-1831.58,0L513.05,650.2H541.5l-14.23,35.56Zm499.52,0-14.22-35.56H1041l-14.23,35.56Zm1165.55,0-14.22-35.56h28.45l-14.23,35.56Zm-1498.56,0L679.56,650.2H708l-14.22,35.56Zm166.51,0L846.06,650.2h28.45l-14.22,35.56Zm499.52,0-14.23-35.56H1374l-14.22,35.56Zm1165.55,0-14.23-35.56h28.45l-14.22,35.56Zm-832.54,0L1678.6,650.2h28.45l-14.23,35.56Zm1498.56,0-14.22-35.56h28.45l-14.23,35.56Zm-2830.62,0L346.54,650.2H375l-14.23,35.56Zm1498.57,0L1845.1,650.2h28.45l-14.22,35.56Zm-333,0-14.23-35.56h28.45l-14.22,35.56Zm1332.05,0-14.23-35.56h28.46l-14.23,35.56Zm-832.53,0-14.23-35.56h28.45l-14.22,35.56Zm-832.54,0-14.22-35.56h28.44l-14.22,35.56Zm1498.56,0-14.22-35.56h28.45l-14.23,35.56Zm333,0-14.23-35.56h28.45l-14.22,35.56Zm-610.53,0-14.22-35.56h28.45l-14.23,35.56Zm-832.53,0-14.23-35.56H1596l-14.22,35.56Zm-499.53,0-14.22-35.56h28.45l-14.23,35.56Zm666,0L1734.1,650.2h28.45l-14.23,35.56Zm-999,0L735.06,650.2h28.45l-14.23,35.56Zm-166.51,0L568.55,650.2H597l-14.23,35.56Zm2664.12,0-14.23-35.56h28.45l-14.22,35.56Zm-1831.58,0-14.22-35.56h28.44l-14.22,35.56Zm1665.07,0-14.22-35.56h28.45l-14.23,35.56Zm-2664.11,0L402,650.2h28.45l-14.22,35.56Zm2331.1,0-14.23-35.56h28.45l-14.22,35.56Zm-832.54,0-14.22-35.56h28.44l-14.22,35.56Zm999,0-14.22-35.56h28.45l-14.23,35.56Zm-1665.07,0-14.22-35.56H1263l-14.23,35.56Zm832.54,0-14.23-35.56h28.45l-14.22,35.56Zm-1165.55,0L901.56,650.2H930l-14.22,35.56Zm1665.07,0-14.23-35.56h28.45l-14.22,35.56Zm-333,0-14.23-35.56h28.45l-14.22,35.56ZM1206.3,631.05h-26l13-32.49,13,32.49Zm1831.57,0h-26l13-32.49,13,32.49Zm-832.53,0h-26l13-32.49,13,32.49Zm-832.54,0h-26l13-32.49,13,32.49Zm1498.57,0h-26q6.51-16.24,13-32.49l13,32.49Zm-1165.55,0h-26l13-32.49,13,32.49Zm-1165.55,0h-26l13-32.49,13,32.49Zm999,0h-26q6.5-16.24,13-32.49l13,32.49Zm499.52,0h-26q6.5-16.24,13-32.49l13,32.49Zm1165.55,0h-26l13-32.49,13,32.49Zm-2164.59,0h-26l13-32.49,13,32.49Zm2331.1,0h-26q6.51-16.24,13-32.49l13,32.49Zm-666,0h-26l13-32.49,13,32.49Zm-166.51,0h-26q6.49-16.24,13-32.49l13,32.49Zm-1831.58,0h-26l13-32.49,13,32.49Zm1165.55,0h-26q6.51-16.24,13-32.49l13,32.49Zm-999,0h-26q6.5-16.24,13-32.49l13,32.49Zm1498.56,0h-26q6.51-16.24,13-32.49l13,32.49Zm777,0h-26l13-32.49,13,32.49Zm-832.54,0h-26l13-32.49,13,32.49Zm-1165.55,0h-26q6.51-16.24,13-32.49l13,32.49Zm333,0h-26l13-32.49,13,32.49Zm-499.52,0h-26l13-32.49,13,32.49Zm666,0h-26q6.51-16.24,13-32.49l13,32.49Zm832.54,0h-26l13-32.49,13,32.49Zm-1998.08,0h-26l13-32.49,13,32.49Zm2830.61,0h-26l13-32.49,13,32.49Zm-1332.05,0h-26l13-32.49,13,32.49Zm-166.51,0h-26q6.5-16.24,13-32.49l13,32.49Zm832.53,0h-26l13-32.49,13,32.49Zm166.51,0h-26l13-32.49,13,32.49Zm166.51,0h-26l13-32.49,13,32.49Zm-832.54,0h-26q6.51-16.24,13-32.49l13,32.49Zm-1332,0h-26l13-32.49,13,32.49Zm499.52,0h-26l13-32.49,13,32.49Zm-666,0h-26q6.5-16.24,13-32.49l13,32.49Zm2401.36-16.91-13-32.49h26l-13,32.49Zm-832.54,0-13-32.49h26l-13,32.49Zm666,0-13-32.49h26l-13,32.49Zm-999,0-13-32.49h26l-13,32.49ZM555,614.14l-13-32.49h26l-13,32.49Zm1998.09,0-13-32.49h26l-13,32.49Zm166.5,0-13-32.49h26l-13,32.49Zm-1165.54,0-13-32.49h26l-13,32.49Zm832.53,0-13-32.49h26l-13,32.49Zm-1165.55,0-13-32.49h26l-13,32.49Zm499.52,0-13-32.49h26l-13,32.49Zm-999,0-13-32.49h26l-13,32.49Zm2497.61,0-13-32.49h26l-13,32.49Zm-2830.63,0-13-32.49h26l-13,32.49Zm499.53,0-13-32.49h26l-13,32.49Zm166.5,0-13-32.49h26l-13,32.49Zm333,0-13-32.49h26l-13,32.49Zm666,0-13-32.49h26l-13,32.49Zm-111,0-13-32.49h26l-13,32.49Zm666,0-13-32.49h26l-13,32.49Zm-499.52,0-13-32.49h26l-13,32.49Zm-666,0-13-32.49h26l-13,32.49Zm1831.58,0-13-32.49h26l-13,32.49Zm-832.54,0-13-32.49h26l-13,32.49Zm-832.53,0-13-32.49h26l-13,32.49Zm666,0-13-32.49h26l-13,32.49Zm-1165.54,0-13-32.49h26l-13,32.49Zm-333,0-13-32.49h26l-13,32.49Zm499.52,0-13-32.49h26l-13,32.49Zm1665.07,0-13-32.49h26l-13,32.49Zm-2331.09,0-13-32.49h26l-13,32.49Zm2164.59,0-13-32.49h26l-13,32.49Zm-2331.1,0-13-32.49h26l-13,32.49Zm2664.11,0-13-32.49h26l-13,32.49Zm-2164.59,0-13-32.49h26l-13,32.49Zm832.53,0-13-32.49h26l-13,32.49Zm622.3-53.3h-23.53l11.76-29.42,11.77,29.42Zm-55.51,0h-23.53q5.88-14.72,11.77-29.42l11.76,29.42Zm-1165.54,0h-23.54q5.88-14.72,11.77-29.42l11.77,29.42Zm55.5,0h-23.53l11.76-29.42,11.77,29.42Zm-222,0H987.28L999,531.42l11.77,29.42Zm1554.06,0h-23.53q5.88-14.72,11.77-29.42l11.76,29.42Zm-55.5,0h-23.53l11.76-29.42,11.77,29.42Zm721.53,0h-23.53q5.88-14.72,11.77-29.42l11.76,29.42Zm-55.5,0h-23.53l11.76-29.42,11.77,29.42Zm222,0h-23.53l11.76-29.42,11.77,29.42Zm-55.51,0h-23.53q5.9-14.72,11.77-29.42l11.76,29.42Zm-1276.55,0h-23.53q5.88-14.72,11.77-29.42l11.76,29.42Zm943.54,0h-23.53l11.76-29.42,11.77,29.42Zm55.5,0h-23.53q5.88-14.72,11.77-29.42l11.76,29.42Zm-1387.55,0h-23.53q5.87-14.72,11.76-29.42l11.77,29.42Zm-1110,0H543.26L555,531.42l11.77,29.42Zm-55.5,0H487.76l11.76-29.42,11.77,29.42Zm1498.56,0h-23.53l11.76-29.42,11.77,29.42Zm-1276.56,0H709.76q5.9-14.72,11.77-29.42l11.76,29.42Zm-55.5,0H654.26q5.88-14.72,11.77-29.42l11.76,29.42Zm832.54,0H1486.8l11.76-29.42,11.77,29.42Zm55.5,0H1542.3q5.88-14.72,11.77-29.42l11.76,29.42Zm-222,0h-23.53q5.88-14.72,11.77-29.42l11.76,29.42Zm499.52,0h-23.53q5.88-14.72,11.77-29.42l11.76,29.42Zm55.51,0h-23.53l11.76-29.42,11.77,29.42Zm777,0h-23.53l11.76-29.42,11.77,29.42Zm55.5,0h-23.53l11.76-29.42,11.77,29.42Zm-1332.06,0h-23.53q5.89-14.72,11.77-29.42l11.76,29.42Zm1498.57,0h-23.53l11.76-29.42,11.77,29.42Zm-55.51,0h-23.53q5.9-14.72,11.77-29.42l11.76,29.42Zm-666,0h-23.53l11.76-29.42,11.77,29.42Zm55.5,0h-23.53l11.76-29.42,11.77,29.42Zm-499.52,0h-23.53l11.76-29.42,11.77,29.42Zm-666,0h-23.53l11.76-29.42,11.77,29.42Zm-222,0H820.77q5.88-14.72,11.77-29.42l11.76,29.42Zm55.5,0H876.27q5.9-14.72,11.77-29.42l11.76,29.42Zm-95-18.32L793,513.11h23.53l-11.77,29.41Zm666,0-11.76-29.41h23.53l-11.77,29.41Zm1831.58,0-11.77-29.41h23.53l-11.76,29.41Zm-166.51,0-11.76-29.41h23.53l-11.77,29.41Zm-2164.59,0-11.76-29.41h23.53l-11.77,29.41Zm166.51,0L1126,513.11h23.53l-11.76,29.41Zm1165.55,0-11.77-29.41h23.53l-11.76,29.41Zm-1665.07,0-11.77-29.41H650l-11.76,29.41Zm2164.59,0-11.77-29.41h23.53l-11.76,29.41Zm-1498.57,0-11.76-29.41h23.53l-11.77,29.41Zm832.54,0-11.77-29.41h23.53l-11.76,29.41Zm832.53,0-11.76-29.41h23.53l-11.77,29.41Zm-499.52,0-11.76-29.41h23.53l-11.77,29.41Zm-832.53,0-11.77-29.41h23.53l-11.76,29.41Zm-1165.55,0L460,513.11h23.53l-11.77,29.41Zm1498.56,0-11.76-29.41h23.53l-11.77,29.41Zm-166.5,0-11.77-29.41h23.53l-11.76,29.41Zm832.53,0-11.77-29.41h23.54l-11.77,29.41Zm-1887.08,0-11.76-29.41h23.53l-11.77,29.41Zm333,0-11.76-29.41h23.53l-11.77,29.41Zm1165.56,0-11.77-29.41h23.53l-11.76,29.41Zm499.52,0-11.77-29.41h23.53l-11.76,29.41Zm-1165.55,0-11.77-29.41h23.53l-11.76,29.41Zm1498.56,0-11.76-29.41h23.53l-11.77,29.41Zm-1831.58,0L1237,513.11h23.53l-11.77,29.41Zm832.54,0-11.77-29.41h23.53l-11.76,29.41Zm-1165.55,0L904,513.11h23.53l-11.76,29.41Zm-333,0L571,513.11h23.53l-11.77,29.41Zm1332.06,0-11.77-29.41h23.54l-11.77,29.41Zm-1498.56,0L404.5,513.11H428l-11.76,29.41Zm2830.62,0-11.77-29.41h23.53l-11.76,29.41Zm-333,0-11.76-29.41h23.53l-11.77,29.41Zm-1498.56,0-11.77-29.41h23.53l-11.76,29.41Zm999,0-11.76-29.41h23.53l-11.77,29.41Zm-666,0-11.76-29.41h23.53l-11.77,29.41Zm832.54,0-11.77-29.41h23.54l-11.77,29.41Zm454.55-51.89h-21.07q5.26-13.17,10.54-26.34l10.53,26.34Zm-277.51,0h-21.07l10.54-26.34,10.53,26.34Zm-2220.09,0H516.73q5.28-13.17,10.54-26.34l10.54,26.34Zm2553.11,0h-21.07l10.53-26.34,10.54,26.34Zm-1221.06,0h-21.07q5.28-13.17,10.54-26.34l10.53,26.34Zm55.51,0h-21.08q5.28-13.17,10.54-26.34l10.54,26.34Zm111,0H2015.3q5.27-13.17,10.54-26.34l10.53,26.34Zm-666,0h-21.07l10.54-26.34,10.53,26.34Zm-166.5,0h-21.08q5.28-13.17,10.54-26.34l10.54,26.34Zm55.5,0h-21.07l10.53-26.34,10.54,26.34Zm333,0h-21.07q5.27-13.17,10.54-26.34l10.53,26.34Zm-166.5,0h-21.08l10.54-26.34,10.54,26.34Zm832.53,0h-21.07q5.27-13.17,10.54-26.34l10.53,26.34Zm-55.5,0h-21.07l10.53-26.34,10.54,26.34Zm-1443.06,0H738.75l10.53-26.34,10.54,26.34Zm333,0h-21.07l10.53-26.34,10.54,26.34Zm999,0H2070.8l10.54-26.34,10.53,26.34Zm1332.06,0h-21.07l10.53-26.34,10.54,26.34Zm-1720.57,0h-21.07l10.53-26.34,10.54,26.34Zm832.53,0h-21.07q5.26-13.17,10.54-26.34l10.53,26.34Zm-166.51,0h-21.07q5.28-13.17,10.54-26.34l10.53,26.34Zm55.51,0h-21.07l10.53-26.34,10.54,26.34Zm-1831.58,0H572.24l10.53-26.34,10.54,26.34Zm2664.11,0h-21.07l10.54-26.34,10.53,26.34Zm-2553.1,0H683.24l10.54-26.34,10.54,26.34Zm333,0h-21.07l10.53-26.34,10.54,26.34Zm2331.1,0h-21.07l10.53-26.34,10.54,26.34Zm-166.51,0h-21.07l10.53-26.34,10.54,26.34Zm-333,0h-21.07q5.28-13.17,10.54-26.34l10.53,26.34Zm55.51,0h-21.07l10.53-26.34,10.54,26.34Zm-333,0h-21.08q5.28-13.17,10.54-26.34l10.54,26.34Zm-1054.55,0h-21.07q5.27-13.17,10.54-26.34l10.53,26.34Zm1165.55,0h-21.07l10.53-26.34,10.54,26.34Zm-1831.58,0H849.75q5.26-13.17,10.54-26.34l10.53,26.34Zm55.5,0H905.25l10.54-26.34,10.53,26.34Zm832.54,0h-21.07l10.53-26.34,10.54,26.34ZM943.54,470.9,933,444.56h21.07L943.54,470.9Zm1498.56,0-10.53-26.34h21.07L2442.1,470.9ZM444,470.9l-10.54-26.34h21.07L444,470.9Zm666,0-10.54-26.34h21.07l-10.53,26.34Zm333,0-10.54-26.34h21.07l-10.53,26.34Zm1332.06,0-10.54-26.34h21.07l-10.53,26.34Zm-2164.59,0L600,444.56h21.07L610.53,470.9Zm1498.56,0-10.54-26.34h21.07l-10.53,26.34Zm999,0-10.53-26.34h21.07l-10.54,26.34Zm166.51,0-10.54-26.34h21.07l-10.53,26.34Zm-1998.09,0L1266,444.56h21.07l-10.54,26.34Zm666,0L1932,444.56h21.08l-10.54,26.34Zm-166.51,0-10.53-26.34h21.07l-10.54,26.34Zm1165.55,0-10.53-26.34h21.07l-10.54,26.34Zm-1332,0L1599,444.56h21.07l-10.53,26.34Zm666,0-10.53-26.34h21.07l-10.54,26.34ZM777,470.9,766.5,444.56h21.07L777,470.9Zm1831.58,0-10.54-26.34h21.08l-10.54,26.34Zm-1110.05,0L1488,444.56h21.07l-10.54,26.34Zm499.52,0-10.53-26.34h21.07l-10.54,26.34Zm-333,0-10.53-26.34h21.07l-10.54,26.34Zm1498.56,0-10.53-26.34h21.07l-10.54,26.34ZM999,470.9l-10.53-26.34h21.07L999,470.9Zm1498.56,0-10.53-26.34h21.07L2497.6,470.9Zm-1332,0L1155,444.56h21.07l-10.54,26.34Zm166.51,0-10.54-26.34h21.07l-10.53,26.34Zm999,0-10.54-26.34h21.07L2331.1,470.9Zm666,0-10.53-26.34h21.07l-10.54,26.34ZM666,470.9l-10.54-26.34h21.07L666,470.9Zm-166.51,0L489,444.56h21.07L499.52,470.9Zm2830.62,0-10.54-26.34h21.08l-10.54,26.34Zm-499.52,0-10.54-26.34h21.07l-10.53,26.34Zm-666,0-10.53-26.34h21.07l-10.54,26.34Zm499.52,0-10.53-26.34h21.07l-10.54,26.34Zm-1831.57,0L822,444.56h21.07L832.54,470.9Zm999,0L1821,444.56h21.07l-10.53,26.34Zm-434.71-50.48h-18.62q4.65-11.64,9.31-23.27l9.31,23.27Zm1665.06,0h-18.61q4.65-11.64,9.31-23.27l9.3,23.27Zm-2497.6,0H545.72l9.3-23.27,9.31,23.27Zm1831.58,0H2377.3q4.63-11.64,9.3-23.27l9.31,23.27Zm-832.54,0h-18.61q4.65-11.64,9.31-23.27l9.3,23.27Zm-832.53,0H712.22q4.66-11.64,9.31-23.27l9.31,23.27Zm999,0h-18.61l9.3-23.27,9.31,23.27Zm-499.52,0h-18.62q4.66-11.64,9.31-23.27l9.31,23.27Zm-333,0H878.73q4.65-11.64,9.31-23.27l9.3,23.27Zm1165.55,0h-18.61q4.65-11.64,9.31-23.27l9.3,23.27Zm666,0h-18.61l9.3-23.27,9.31,23.27Zm666,0h-18.61l9.3-23.27,9.31,23.27Zm-1498.56,0h-18.62q4.65-11.64,9.31-23.27l9.31,23.27Zm333,0h-18.61l9.3-23.27,9.31,23.27Zm333,0H2543.8q4.65-11.64,9.31-23.27l9.3,23.27Zm666,0h-18.61q4.65-11.64,9.31-23.27l9.3,23.27Zm-333,0h-18.61l9.3-23.27,9.31,23.27Zm-1831.58,0h-18.61l9.3-23.27,9.31,23.27Zm222,0h-18.61l9.3-23.27,9.31,23.27Zm832.54,0h-18.62q4.66-11.64,9.31-23.27l9.31,23.27Zm-1498.57,0H601.22q4.65-11.64,9.31-23.27l9.3,23.27Zm1831.58,0H2432.8l9.3-23.27,9.31,23.27Zm166.51,0H2599.3q4.66-11.64,9.31-23.27l9.31,23.27Zm-832.54,0h-18.61l9.3-23.27,9.31,23.27Zm1498.56,0h-18.61q4.65-11.64,9.31-23.27l9.3,23.27Zm-333,0h-18.61l9.3-23.27,9.31,23.27Zm-1831.58,0h-18.61q4.65-11.64,9.31-23.27l9.3,23.27Zm1165.55,0h-18.61q4.65-11.64,9.3-23.27l9.31,23.27Zm-1498.56,0H767.73l9.3-23.27,9.31,23.27Zm666,0h-18.62q4.66-11.64,9.31-23.27l9.31,23.27Zm1665.07,0h-18.62q4.66-11.64,9.31-23.27l9.31,23.27Zm-1498.57,0h-18.61q4.65-11.64,9.31-23.27l9.3,23.27Zm1831.58,0h-18.61q4.65-11.64,9.31-23.27l9.3,23.27Zm-666,0h-18.61q4.65-11.64,9.31-23.27l9.3,23.27Zm-832.53,0h-18.61l9.3-23.27,9.31,23.27Zm-999,0H934.23q4.66-11.64,9.31-23.27l9.3,23.27Zm1184-21.14L2127.53,376h18.62l-9.31,23.26Zm-832.54,0L1295,376h18.61l-9.31,23.26Zm166.51,0-9.3-23.26h18.61l-9.31,23.26Zm1498.56,0-9.3-23.26h18.61l-9.31,23.26Zm-1332,0L1628,376h18.61l-9.3,23.26Zm-1165.55,0L462.46,376h18.62l-9.31,23.26Zm1998.08,0-9.3-23.26h18.61l-9.31,23.26Zm832.54,0L3293.08,376h18.62l-9.31,23.26Zm-1332.06,0L1961,376h18.61l-9.31,23.26Zm832.54,0L2793.56,376h18.61l-9.3,23.26Zm-499.52,0L2294,376h18.61l-9.3,23.26Zm-1165.55,0L1128.49,376h18.61l-9.3,23.26Zm-333,0L795.48,376h18.61l-9.31,23.26Zm1831.58,0L2627.05,376h18.62l-9.31,23.26Zm-1665.07,0L962,376H980.6l-9.31,23.26Zm832.54,0L1794.52,376h18.61l-9.3,23.26Zm-1165.55,0L629,376h18.61l-9.3,23.26Zm2497.6,0L3126.57,376h18.62l-9.31,23.26Zm-943.54,0L2183,376h18.61l-9.31,23.26Zm-166.5,0L2016.53,376h18.61l-9.3,23.26Zm-666,0L1350.5,376h18.61l-9.3,23.26Zm1998.08,0-9.3-23.26h18.61l-9.31,23.26Zm-2664.11,0L684.47,376h18.62l-9.31,23.26Zm999,0-9.3-23.26h18.61l-9.31,23.26Zm-166.5,0L1517,376h18.61l-9.3,23.26Zm1665.06,0-9.3-23.26h18.61l-9.31,23.26Zm-166.5,0L3015.57,376h18.61l-9.3,23.26Zm-499.52,0L2516.05,376h18.61l-9.3,23.26Zm-1498.57,0-9.3-23.26h18.61l-9.31,23.26Zm-166.5,0L851,376h18.61l-9.3,23.26Zm999,0L1850,376h18.61l-9.3,23.26Zm832.53,0-9.3-23.26h18.61l-9.31,23.26Zm-2164.59,0L518,376h18.62l-9.31,23.26Zm1831.58,0L2349.54,376h18.61l-9.3,23.26Zm-1165.55,0L1184,376h18.62l-9.31,23.26Zm1665.07,0L2849.06,376h18.61l-9.3,23.26Zm-1712.5-49.07h-16.15L1137.8,330l8.07,20.19Zm2164.6,0h-16.16q4.05-10.09,8.08-20.19l8.08,20.19Zm-832.54,0h-16.15l8.07-20.19,8.08,20.19Zm-1165.55,0h-16.15L1304.3,330l8.08,20.19Zm1332.06,0h-16.16q4-10.09,8.08-20.19l8.08,20.19Zm333,0H2961.3l8.07-20.19,8.08,20.19Zm-2331.1,0H630.2q4-10.09,8.08-20.19l8.07,20.19Zm2497.61,0H3127.8q4-10.09,8.08-20.19l8.08,20.19Zm-2331.1,0H796.71L804.78,330l8.08,20.19Zm832.53,0h-16.15l8.08-20.19,8.07,20.19Zm1831.58,0h-16.15q4-10.09,8.08-20.19l8.07,20.19Zm-666,0h-16.16l8.08-20.19,8.08,20.19Zm-666,0h-16.16l8.08-20.19,8.08,20.19Zm-166.51,0h-16.15l8.07-20.19,8.08,20.19Zm-999,0H963.22L971.29,330l8.08,20.19Zm832.53,0h-16.15l8.08-20.19,8.07,20.19Zm-333,0h-16.15l8.07-20.19,8.08,20.19Zm832.53,0h-16.15l8.08-20.19,8.07,20.19Zm-1387.55,0H907.71L915.79,330l8.08,20.19Zm1831.57,0h-16.15q4-10.09,8.08-20.19l8.07,20.19Zm-1665.07,0h-16.15l8.07-20.19,8.08,20.19Zm2164.59,0h-16.15q4-10.09,8.08-20.19l8.07,20.19Zm-1165.55,0h-16.15q4-10.09,8.08-20.19l8.07,20.19Zm499.52,0h-16.15q4-10.09,8.08-20.19l8.07,20.19Zm-832.53,0h-16.15l8.07-20.19,8.08,20.19Zm1165.55,0H2905.8l8.07-20.19,8.08,20.19Zm-2164.59,0H741.21L749.28,330l8.08,20.19Zm832.53,0h-16.15q4-10.09,8.08-20.19l8.07,20.19Zm-333,0h-16.15L1248.8,330l8.08,20.19Zm1831.58,0H3072.3q4-10.09,8.08-20.19l8.08,20.19Zm-1665.07,0h-16.16q4.05-10.09,8.08-20.19l8.08,20.19Zm832.53,0h-16.15q4-10.09,8.08-20.19l8.07,20.19Zm166.51,0h-16.16q4-10.09,8.08-20.19l8.08,20.19Zm999,0h-16.15l8.07-20.19,8.08,20.19Zm-2830.62,0H574.7L582.77,330l8.08,20.19Zm1332.06,0h-16.16q4.05-10.09,8.08-20.19l8.08,20.19ZM896.12,307.47l-.34.83L888,327.66,880,307.47Zm333,0-.34.83-7.74,19.36L1213,307.47Zm-166.51,0-.33.83-7.75,19.36-8.07-20.19Zm333,0-.34.83-7.74,19.36-8.08-20.19Zm666,0-.33.83-7.74,19.36-8.08-20.19Zm-333,0-.34.83-7.74,19.36-8.08-20.19Zm499.52,0-.33.83-7.75,19.36L2212,307.47Zm832.53,0-.33.83-7.74,19.36-8.08-20.19Zm-1498.56,0-.33.83-7.74,19.36L1546,307.47Zm-832.53,0-.34.83-7.74,19.36-8.08-20.19Zm2164.59,0-.33.83-7.75,19.36-8.07-20.19Zm-333,0-.33.83-7.74,19.36L2545,307.47Zm-666,0-.34.83-7.74,19.36L1879,307.47Zm1498.56,0-.33.83-7.75,19.36-8.07-20.19Zm-999,0-.34.83-7.74,19.36-8.08-20.19Zm-1831.58,0-.33.83L555,327.66,547,307.47Zm2164.59,0-.33.83-7.75,19.36-8.07-20.19Zm499.52,0-.33.83-7.74,19.36-8.08-20.19ZM832.54,327.66l-8.08-20.19h16.15l-8.07,20.19Zm499.52,0L1324,307.47h16.15l-8.07,20.19Zm333,0L1657,307.47h16.14l-8.07,20.19Zm-499.52,0-8.08-20.19h16.15l-8.07,20.19Zm1498.56,0L2656,307.47h16.15l-8.08,20.19Zm-499.52,0-8.07-20.19h16.15l-8.08,20.19Zm-166.51,0L1990,307.47h16.15l-8.08,20.19Zm832.54,0-8.08-20.19h16.16l-8.08,20.19ZM666,327.66,658,307.47H674.1L666,327.66Zm832.53,0-8.07-20.19h16.15l-8.08,20.19Zm999,0-8.07-20.19h16.15l-8.08,20.19Zm499.52,0-8.07-20.19h16.15l-8.08,20.19ZM999,327.66,991,307.47h16.15L999,327.66Zm2331.1,0-8.08-20.19h16.16l-8.08,20.19Zm-2830.62,0-8.08-20.19H507.6l-8.08,20.19Zm2664.11,0-8.07-20.19h16.15l-8.08,20.19Zm-832.53,0L2323,307.47h16.15l-8.07,20.19Zm-499.52,0-8.08-20.19h16.15l-8.07,20.19ZM950.39,280h-13.7q3.43-8.56,6.85-17.12L950.39,280Zm-166.51,0H770.19L777,262.88,783.88,280Zm999,0h-13.69l6.84-17.12,6.85,17.12Zm333,0h-13.7q3.42-8.56,6.85-17.12l6.85,17.12Zm832.53,0h-13.69l6.84-17.12,6.85,17.12Zm-2331.1,0H603.68q3.42-8.56,6.85-17.12L617.37,280Zm999.05,0h-13.7q3.42-8.56,6.85-17.12l6.85,17.12Zm-166.51,0h-13.69l6.84-17.12,6.85,17.12Zm1165.55,0h-13.7q3.42-8.56,6.85-17.12l6.85,17.12Zm-1498.57,0H1103.2q3.42-8.56,6.85-17.12l6.84,17.12Zm2164.59,0h-13.69q3.42-8.56,6.85-17.12l6.84,17.12ZM3115,280h-13.7q3.43-8.56,6.85-17.12L3115,280Zm333,0H3434.3q3.42-8.56,6.85-17.12L3448,280Zm-1498.56,0h-13.69l6.84-17.12,6.85,17.12ZM2449,280h-13.69l6.84-17.12L2449,280Zm333,0h-13.69q3.42-8.56,6.85-17.12L2782,280ZM1283.4,280h-13.69l6.84-17.12L1283.4,280Zm999,0h-13.69l6.84-17.12,6.85,17.12ZM2671,280h-13.69l6.84-17.12L2671,280Zm-1165.55,0h-13.69l6.84-17.12,6.85,17.12Zm-666,0H825.69q3.42-8.56,6.85-17.12L839.38,280ZM3004,280h-13.69l6.84-17.12L3004,280Zm-666,0h-13.69q3.42-8.56,6.85-17.12l6.84,17.12Zm832.54,0h-13.69l6.84-17.12,6.85,17.12Zm-666,0h-13.69l6.84-17.12,6.85,17.12Zm-832.54,0h-13.69q3.43-8.56,6.85-17.12l6.84,17.12Zm1831.58,0H3489.8q3.42-8.56,6.85-17.12l6.84,17.12ZM672.87,280H659.18q3.42-8.56,6.85-17.12L672.87,280Zm333,0h-13.7q3.43-8.56,6.85-17.12l6.85,17.12Zm832.53,0h-13.69q3.42-8.56,6.85-17.12l6.84,17.12Zm333,0h-13.69l6.84-17.12,6.85,17.12Zm-166.51,0h-13.69l6.84-17.12,6.85,17.12Zm832.54,0h-13.7q3.42-8.56,6.85-17.12l6.85,17.12ZM3337,280h-13.7q3.43-8.56,6.85-17.12L3337,280Zm-2164.6,0H1158.7q3.42-8.56,6.85-17.12l6.84,17.12Zm166.51,0h-13.69q3.42-8.56,6.85-17.12L1338.9,280Zm353.92-24L1686,238.92h13.7L1692.82,256Zm666,0L2352,238.92h13.69L2358.85,256Zm666,0L3018,238.92h13.69L3024.88,256Zm-832.54,0-6.84-17.12h13.69L2192.34,256Zm-832.53,0L1353,238.92h13.69L1359.81,256Zm1498.56,0-6.84-17.12h13.69L2858.37,256ZM693.78,256l-6.85-17.12h13.7L693.78,256Zm832.54,0-6.85-17.12h13.69L1526.32,256Zm333,0-6.85-17.12h13.69L1859.33,256Zm666,0-6.85-17.12h13.69L2525.36,256ZM527.27,256l-6.84-17.12h13.69L527.27,256Zm499.52,0L1020,238.92h13.69L1026.79,256Zm2164.59,0-6.84-17.12h13.69L3191.38,256Zm166.51,0-6.84-17.12h13.69L3357.89,256ZM1193.3,256l-6.85-17.12h13.7L1193.3,256Zm-333,0-6.85-17.12h13.69L860.29,256Zm1831.57,0L2685,238.92h13.69L2691.86,256Zm-666,0L2019,238.92h13.69L2025.84,256Zm-277.52,0-6.84-17.12h13.69L1748.32,256Zm-499.52,0L1242,238.92h13.69L1248.8,256Zm-499.52,0-6.84-17.12h13.69L749.28,256Zm1332.06,0-6.85-17.12h13.69L2081.34,256Zm-666,0-6.85-17.12h13.7L1415.31,256Zm999,0-6.85-17.12h13.7L2414.35,256ZM582.77,256l-6.84-17.12h13.69L582.77,256Zm2164.6,0-6.85-17.12h13.69L2747.37,256ZM915.79,256l-6.85-17.12h13.7L915.79,256Zm1665.07,0L2574,238.92h13.69L2580.86,256Zm-666,0L1908,238.92h13.7L1914.83,256Zm1165.55,0-6.85-17.12h13.7L3080.38,256Zm-1998.09,0-6.84-17.12h13.69L1082.29,256Zm2164.6,0L3240,238.92h13.69L3246.89,256Zm166.5,0-6.84-17.12h13.69L3413.39,256Zm-1831.57,0L1575,238.92h13.69L1581.82,256Zm666,0L2241,238.92h13.69L2247.85,256Zm666,0L2907,238.92h13.7L2913.87,256Zm-1937-46.25H965.67l5.62-14,5.62,14Zm333,0h-11.23l5.61-14,5.62,14Zm1165.55,0h-11.23l5.61-14,5.62,14Zm-999,0H1465.2l5.61-14,5.62,14Zm1665.07,0h-11.23l5.61-14,5.62,14Zm-999,0h-11.24l5.62-14,5.62,14Zm-499.52,0H1631.7l5.62-14,5.62,14Zm-499.53,0h-11.23l5.62-14,5.61,14Zm1498.57,0h-11.24l5.62-14,5.62,14Zm832.53,0h-11.23l5.62-14,5.61,14Zm-2830.62,0H632.66l5.62-14,5.61,14Zm1165.55,0h-11.23l5.62-14,5.61,14Zm999,0h-11.24l5.62-14,5.62,14Zm-499.52,0h-11.24l5.62-14,5.62,14Zm666,0h-11.23l5.61-14,5.62,14Zm-999,0h-11.23l5.61-14,5.62,14Zm-1165.55,0H799.17l5.61-14,5.62,14Zm2497.61,0h-11.24l5.62-14,5.62,14Zm-444,0h-11.24q2.8-7,5.62-14l5.62,14Zm-832.54,0h-11.23q2.8-7,5.62-14l5.61,14Zm-166.51,0h-11.23q2.8-7,5.62-14l5.61,14Zm-166.5,0H1687.2l5.62-14,5.62,14Zm-333,0h-11.23q2.8-7,5.62-14l5.61,14Zm1165.55,0h-11.23q2.81-7,5.62-14l5.61,14Zm-999,0H1520.7q2.8-7,5.62-14l5.61,14Zm-333,0h-11.24l5.62-14,5.62,14Zm1831.58,0h-11.24q2.8-7,5.62-14l5.62,14Zm-2164.6,0H854.67q2.8-7,5.62-14l5.61,14Zm1332.06,0h-11.24l5.62-14,5.62,14Zm1165.55,0h-11.23l5.61-14,5.62,14Zm-999,0h-11.24q2.8-7,5.62-14l5.62,14Zm-1332.06,0h-11.23l5.61-14,5.62,14Zm2497.61,0h-11.24q2.8-7,5.62-14l5.62,14Zm-2830.62,0H688.16l5.62-14,5.62,14Zm2497.6,0h-11.23l5.61-14,5.62,14Zm-499.52,0h-11.23l5.61-14,5.62,14ZM555,184.42l-5.61-14h11.23l-5.62,14Zm666,0-5.62-14h11.24l-5.62,14Zm-333,0-5.62-14h11.23l-5.61,14Zm2331.1,0-5.62-14h11.23l-5.61,14Zm-499.53,0-5.61-14h11.23l-5.62,14Zm-832.53,0-5.62-14h11.24l-5.62,14Zm166.51,0-5.62-14h11.23l-5.61,14Zm-333,0-5.62-14h11.24l-5.62,14Zm-666,0-5.61-14h11.23l-5.62,14Zm2331.1,0-5.61-14h11.23l-5.62,14Zm-499.52,0-5.62-14h11.24l-5.62,14Zm-2164.59,0-5.62-14h11.24l-5.62,14Zm832.54,0-5.62-14h11.23l-5.61,14Zm999,0-5.62-14h11.23l-5.61,14Zm-333,0-5.62-14h11.24l-5.62,14Zm-832.53,0-5.62-14h11.23l-5.61,14Zm1665.07,0-5.62-14h11.23l-5.61,14Zm-666,0-5.62-14h11.24l-5.62,14Zm388.52,0-5.62-14h11.23l-5.61,14Zm-1831.58,0-5.62-14h11.24l-5.62,14Zm999,0-5.61-14h11.23l-5.62,14Zm-166.51,0-5.61-14h11.23l-5.62,14Zm1165.55,0-5.61-14h11.23l-5.62,14Zm-1498.56,0-5.61-14h11.23l-5.62,14Zm1665.07,0-5.62-14h11.24l-5.62,14Zm-999,0-5.62-14h11.24l-5.62,14Zm499.52,0-5.62-14h11.24l-5.62,14ZM777,184.42l-5.61-14h11.23l-5.62,14Zm832.54,0-5.62-14h11.24l-5.62,14Zm-999,0-5.62-14h11.23l-5.61,14Zm1665.06,0-5.61-14h11.23l-5.62,14Zm1165.56,0-5.62-14h11.23l-5.61,14Zm-2164.6,0-5.61-14h11.23l-5.62,14Zm1165.55,0-5.61-14h11.23l-5.62,14Zm-1332,0-5.62-14h11.23l-5.61,14Zm2164.59,0-5.62-14h11.23l-5.61,14Zm-2104.7-44.85h-8.78q2.21-5.48,4.39-11l4.39,11Zm2331.09,0h-8.77q2.19-5.48,4.39-11l4.38,11Zm-2830.62,0h-8.77l4.39-11,4.38,11Zm1165.55,0h-8.77l4.39-11,4.38,11Zm333,0h-8.78q2.21-5.48,4.39-11l4.39,11Zm499.52,0h-8.77l4.38-11,4.39,11Zm-999,0h-8.78q2.21-5.48,4.39-11l4.39,11Zm-333,0h-8.77l4.39-11,4.38,11Zm1165.55,0h-8.77l4.38-11,4.39,11Zm-1665.07,0h-8.77l4.39-11,4.38,11Zm1498.57,0h-8.78q2.19-5.48,4.39-11l4.39,11Zm-832.54,0h-8.78q2.2-5.48,4.39-11l4.39,11Zm1498.56,0h-8.77c1.46-3.65,2.93-7.3,4.38-11l4.39,11Zm333,0h-8.78q2.19-5.48,4.39-11l4.39,11Zm-166.51,0h-8.77l4.38-11,4.39,11Zm-2164.59,0h-8.78q2.21-5.48,4.39-11l4.39,11Zm1831.58,0h-8.78q2.19-5.48,4.39-11l4.39,11Zm-832.54,0h-8.77l4.38-11,4.39,11Zm-777,0h-8.78q2.21-5.48,4.39-11l4.39,11Zm2331.1,0h-8.78q2.19-5.48,4.39-11l4.39,11Zm-2830.62,0h-8.78q2.19-5.48,4.39-11l4.39,11Zm1665.07,0h-8.78q2.2-5.48,4.39-11l4.39,11Zm-832.54,0h-8.77l4.39-11,4.38,11Zm1498.57,0h-8.78q2.19-5.48,4.39-11l4.39,11Zm-2164.6,0h-8.77q2.19-5.48,4.39-11l4.38,11Zm1665.07,0h-8.77l4.39-11,4.38,11Zm-1165.55,0h-8.77q2.19-5.48,4.39-11l4.38,11Zm499.53,0h-8.78q2.2-5.48,4.39-11l4.39,11Zm333,0h-8.77l4.38-11,4.39,11Zm1165.55,0h-8.78q2.2-5.48,4.39-11l4.39,11Zm-499.52,0h-8.78q2.2-5.48,4.39-11l4.39,11Zm-1831.58,0h-8.77l4.38-11,4.39,11Zm666,0h-8.78q2.21-5.48,4.39-11l4.39,11Zm1498.56,0h-8.77l4.39-11,4.38,11Zm-1165.55,0h-8.77l4.39-11,4.38,11Zm666,0h-8.77l4.38-11,4.39,11ZM2414.35,112.8l-4.39-11h8.78l-4.39,11Zm832.54,0-4.39-11h8.77l-4.38,11Zm-1165.55,0-4.39-11h8.77l-4.38,11Zm-999.05,0-4.38-11h8.77l-4.39,11Zm1498.57,0-4.39-11h8.77l-4.38,11Zm832.53,0-4.39-11h8.78l-4.39,11Zm-2830.62,0-4.38-11h8.77l-4.39,11Zm1165.55,0-4.38-11h8.77l-4.39,11Zm-166.5,0-4.39-11h8.77l-4.38,11Zm1498.56,0-4.39-11h8.78l-4.39,11Zm-832.53,0-4.39-11h8.77l-4.38,11Zm-832.54,0-4.39-11h8.78l-4.39,11Zm-499.52,0-4.39-11h8.77l-4.38,11Zm1998.08,0-4.39-11h8.78l-4.39,11Zm-2164.59,0-4.38-11h8.77l-4.39,11Zm1165.55,0-4.39-11h8.78l-4.39,11Zm832.54,0-4.39-11h8.77l-4.38,11Zm-1498.57,0-4.38-11h8.77l-4.39,11Zm1221.05,0-4.38-11h8.77l-4.39,11Zm666,0-4.38-11h8.77l-4.39,11Zm-999,0-4.39-11h8.78l-4.39,11Zm-999,0-4.39-11h8.78l-4.39,11Zm2164.59,0-4.39-11h8.78l-4.39,11Zm-1498.56,0-4.39-11h8.77l-4.38,11Zm832.53,0-4.39-11h8.78l-4.39,11Zm-1998.08,0-4.39-11h8.77l-4.38,11Zm2830.62,0-4.39-11h8.77l-4.38,11Zm-1831.58,0-4.39-11h8.78l-4.39,11Zm1332.05,0-4.38-11h8.77l-4.39,11Zm-2164.59,0-4.39-11h8.78l-4.39,11Zm499.52,0-4.38-11h8.77l-4.39,11Zm1498.57,0-4.39-11h8.78l-4.39,11Zm-832.54,0-4.38-11h8.77l-4.39,11Zm-499.52,0-4.39-11h8.78l-4.39,11Zm-499.52,0-4.39-11h8.78l-4.39,11Zm1332.06,0-4.39-11h8.77l-4.38,11ZM2695,69.36h-6.32l3.16-7.89,3.16,7.89Zm-832.54,0h-6.31l3.16-7.89,3.15,7.89Zm-499.52,0h-6.31l3.16-7.89,3.15,7.89Zm666,0h-6.31l3.16-7.89,3.15,7.89Zm832.54,0h-6.32l3.16-7.89,3.16,7.89Zm-2164.59,0h-6.32l3.16-7.89,3.16,7.89Zm2331.1,0h-6.32l3.16-7.89,3.16,7.89ZM1030,69.36h-6.31l3.15-7.89,3.16,7.89Zm499.52,0h-6.31l3.16-7.89,3.15,7.89Zm666,0h-6.32l3.16-7.89,3.16,7.89Zm1165.55,0h-6.32l3.16-7.89,3.16,7.89Zm-2164.59,0h-6.32l3.16-7.89,3.16,7.89Zm2331.1,0h-6.32l3.16-7.89,3.16,7.89Zm-999,0h-6.32l3.16-7.89,3.16,7.89Zm-166.51,0h-6.32l3.16-7.89,3.16,7.89Zm832.53,0h-6.31l3.15-7.89,3.16,7.89Zm-2331.1,0h-6.31l3.16-7.89,3.15,7.89Zm832.54,0h-6.32l3.16-7.89,3.16,7.89Zm1221.05,0h-6.32q1.59-3.94,3.16-7.89l3.16,7.89Zm-1831.58,0h-6.31l3.15-7.89,3.16,7.89Zm999,0h-6.31q1.58-3.94,3.16-7.89l3.15,7.89ZM919,69.36h-6.32l3.16-7.89L919,69.36Zm333,0h-6.31l3.15-7.89,3.16,7.89Zm2164.59,0h-6.32q1.59-3.94,3.16-7.89l3.16,7.89ZM2251,69.36h-6.31q1.57-3.94,3.16-7.89l3.15,7.89Zm-333,0h-6.32q1.59-3.94,3.16-7.89l3.16,7.89Zm1165.55,0h-6.32l3.16-7.89,3.16,7.89ZM1585,69.36h-6.31q1.58-3.94,3.16-7.89l3.15,7.89Zm166.51,0h-6.31l3.15-7.89,3.16,7.89Zm-333,0h-6.32q1.59-3.94,3.16-7.89l3.16,7.89Zm999,0h-6.32q1.59-3.94,3.16-7.89l3.16,7.89Zm-1665.07,0h-6.32q1.59-3.94,3.16-7.89l3.16,7.89Zm2830.62,0h-6.32q1.59-3.94,3.16-7.89l3.16,7.89Zm-333,0h-6.31l3.16-7.89,3.15,7.89Zm-666,0h-6.31l3.16-7.89,3.15,7.89Zm166.51,0h-6.31q1.58-3.94,3.16-7.89l3.15,7.89Zm-1474-28.18-3.15-7.89h6.31l-3.16,7.89Zm166.51,0-3.16-7.89h6.32l-3.16,7.89Zm166.51,0-3.16-7.89h6.32l-3.16,7.89Zm1665.07,0-3.16-7.89h6.31l-3.15,7.89Zm-2164.59,0-3.16-7.89h6.32l-3.16,7.89Zm1831.57,0-3.15-7.89h6.31l-3.16,7.89ZM777,41.18l-3.16-7.89h6.32L777,41.18Zm1831.58,0-3.16-7.89h6.32l-3.16,7.89Zm-333,0-3.15-7.89h6.31l-3.16,7.89Zm-1665.06,0-3.16-7.89h6.31l-3.15,7.89Zm1165.54,0-3.15-7.89h6.31l-3.16,7.89Zm1665.08,0L3438,33.29h6.31l-3.15,7.89Zm-1332.06,0-3.16-7.89h6.32l-3.16,7.89Zm999,0L3105,33.29h6.32l-3.16,7.89Zm-666,0L2439,33.29h6.31l-3.16,7.89Zm333,0L2772,33.29h6.31l-3.15,7.89Zm-832.54,0-3.15-7.89h6.31l-3.16,7.89Zm-999,0-3.16-7.89h6.32l-3.16,7.89Zm2386.6,0L3327,33.29h6.32l-3.16,7.89Zm-333,0L2994,33.29h6.31l-3.16,7.89Zm166.51,0-3.15-7.89h6.31l-3.16,7.89Zm-1998.08,0-3.16-7.89h6.32l-3.16,7.89Zm-333,0-3.16-7.89h6.31l-3.15,7.89Zm1332.05,0-3.16-7.89h6.32l-3.16,7.89Zm1332.06,0-3.16-7.89h6.31l-3.15,7.89Zm-1498.57,0-3.16-7.89h6.32l-3.16,7.89Zm-1332,0-3.16-7.89h6.31L666,41.18Zm1165.55,0-3.16-7.89h6.32l-3.16,7.89Zm832.53,0L2661,33.29h6.32l-3.16,7.89Zm-999,0-3.16-7.89h6.32l-3.16,7.89Zm832.53,0-3.15-7.89h6.31l-3.16,7.89Zm-999,0-3.16-7.89h6.32l-3.16,7.89ZM999,41.18l-3.16-7.89h6.32L999,41.18Zm333,0-3.16-7.89h6.31l-3.15,7.89Zm999,0-3.16-7.89h6.32l-3.16,7.89Zm499.52,0-3.16-7.89h6.32l-3.16,7.89Z"></path> </svg> 